<svg width="48" height="48" viewBox="0 0 48 48" fill="none" xmlns="http://www.w3.org/2000/svg">
<path d="M19.2852 30.1732C27.4187 30.1732 34.2852 31.5115 34.2852 36.6803C34.2852 41.8491 27.3747 43.1428 19.2852 43.1428C11.1516 43.1428 4.28516 41.8025 4.28516 36.6357C4.28516 31.4669 11.1936 30.1732 19.2852 30.1732ZM38.2831 15.1428C39.2756 15.1428 40.081 15.9617 40.081 16.9661V19.3185H42.4872C43.4776 19.3185 44.2852 20.1374 44.2852 21.1418C44.2852 22.1461 43.4776 22.965 42.4872 22.965H40.081V25.3196C40.081 26.3239 39.2756 27.1428 38.2831 27.1428C37.2927 27.1428 36.4852 26.3239 36.4852 25.3196V22.965H34.0831C33.0906 22.965 32.2852 22.1461 32.2852 21.1418C32.2852 20.1374 33.0906 19.3185 34.0831 19.3185H36.4852V16.9661C36.4852 15.9617 37.2927 15.1428 38.2831 15.1428ZM19.2852 5.14282C24.7943 5.14282 29.2104 9.61608 29.2104 15.1965C29.2104 20.7769 24.7943 25.2502 19.2852 25.2502C13.776 25.2502 9.35989 20.7769 9.35989 15.1965C9.35989 9.61608 13.776 5.14282 19.2852 5.14282Z" fill="#172A82"/>
</svg>
