<svg width="48" height="48" viewBox="0 0 48 48" fill="none" xmlns="http://www.w3.org/2000/svg">
<g clip-path="url(#clip0_1397_11817)">
<path d="M41.9998 26.0997H40.0828L40.0168 27.2997H41.9998V28.4997H38.6578C38.7303 28.3188 38.7729 28.1273 38.7838 27.9327L38.7868 27.8997V27.8667L38.8168 27.2997L38.8828 26.0997L39.2368 19.4277C39.2366 19.2001 39.1915 18.9747 39.104 18.7646C39.0165 18.5544 38.8884 18.3636 38.7271 18.2031C38.5657 18.0426 38.3742 17.9154 38.1636 17.8291C37.953 17.7427 37.7274 17.6987 37.4998 17.6997H23.0998C22.8722 17.6987 22.6466 17.7427 22.436 17.8291C22.2254 17.9155 22.0339 18.0426 21.8725 18.2031C21.7112 18.3636 21.5831 18.5545 21.4956 18.7646C21.4081 18.9747 21.363 19.2001 21.3628 19.4277L21.7168 26.0997L21.7828 27.2997L21.8128 27.8667V27.8997L21.8158 27.9327C21.8267 28.1273 21.8693 28.3188 21.9418 28.4997H5.9998V27.2997H20.5828L20.5168 26.0997H5.9998C5.84221 26.0997 5.68614 26.1307 5.54053 26.191C5.39492 26.2513 5.26262 26.3397 5.15118 26.4511C5.03974 26.5625 4.95135 26.6948 4.89106 26.8405C4.83077 26.9861 4.79976 27.1421 4.7998 27.2997V28.4997C4.79977 28.6573 4.83078 28.8134 4.89107 28.959C4.95136 29.1046 5.03975 29.2369 5.15119 29.3483C5.26263 29.4598 5.39493 29.5482 5.54054 29.6085C5.68615 29.6688 5.84221 29.6998 5.9998 29.6997H7.4998V42.5997C7.4998 42.7589 7.56302 42.9115 7.67554 43.024C7.78806 43.1365 7.94067 43.1997 8.0998 43.1997C8.25893 43.1997 8.41155 43.1365 8.52407 43.024C8.63659 42.9115 8.6998 42.7589 8.6998 42.5997V33.2997H26.6998V42.5997C26.6998 42.7589 26.763 42.9115 26.8755 43.024C26.9881 43.1365 27.1407 43.1997 27.2998 43.1997C27.4589 43.1997 27.6115 43.1365 27.7241 43.024C27.8366 42.9115 27.8998 42.7589 27.8998 42.5997V37.7997H39.2998V42.5997C39.2998 42.7589 39.363 42.9115 39.4755 43.024C39.5881 43.1365 39.7407 43.1997 39.8998 43.1997C40.0589 43.1997 40.2115 43.1365 40.3241 43.024C40.4366 42.9115 40.4998 42.7589 40.4998 42.5997V29.6997H41.9998C42.1574 29.6998 42.3135 29.6688 42.4591 29.6085C42.6047 29.5482 42.737 29.4598 42.8484 29.3483C42.9599 29.2369 43.0483 29.1046 43.1085 28.959C43.1688 28.8134 43.1998 28.6573 43.1998 28.4997V27.2997C43.1998 27.1421 43.1688 26.9861 43.1085 26.8405C43.0483 26.6948 42.9599 26.5625 42.8484 26.4511C42.737 26.3397 42.6047 26.2513 42.4591 26.191C42.3135 26.1307 42.1574 26.0997 41.9998 26.0997V26.0997ZM30.2998 21.5997C30.7151 21.5997 31.1212 21.7229 31.4665 21.9536C31.8118 22.1844 32.081 22.5124 32.2399 22.8961C32.3989 23.2798 32.4405 23.7021 32.3595 24.1094C32.2784 24.5168 32.0784 24.891 31.7847 25.1846C31.491 25.4783 31.1169 25.6783 30.7095 25.7594C30.3021 25.8404 29.8799 25.7988 29.4962 25.6399C29.1124 25.4809 28.7845 25.2118 28.5537 24.8664C28.323 24.5211 28.1998 24.1151 28.1998 23.6997C28.2004 23.143 28.4219 22.6092 28.8156 22.2155C29.2092 21.8218 29.743 21.6003 30.2998 21.5997V21.5997ZM39.2998 32.0997H8.6998V29.6997H39.2998V32.0997Z" fill="#3754DB"/>
<path d="M7.60483 24.8998H13.3948C13.2716 24.5487 13.0423 24.2446 12.7386 24.0296C12.4349 23.8146 12.0719 23.6994 11.6998 23.6998H10.7878L8.36983 19.2178C8.043 19.4561 7.67167 19.6265 7.27783 19.7188L9.42583 23.6998H9.29983C8.92775 23.6994 8.56475 23.8146 8.26107 24.0296C7.9574 24.2446 7.72807 24.5487 7.60483 24.8998V24.8998Z" fill="#3754DB"/>
<path d="M30.2999 24.5998C30.797 24.5998 31.1999 24.1969 31.1999 23.6998C31.1999 23.2027 30.797 22.7998 30.2999 22.7998C29.8028 22.7998 29.3999 23.2027 29.3999 23.6998C29.3999 24.1969 29.8028 24.5998 30.2999 24.5998Z" fill="#3754DB"/>
<path d="M38.1 7.02256C38.2591 7.02255 38.4117 6.95933 38.5243 6.84681C38.6368 6.73429 38.7 6.58169 38.7 6.42256V5.3998C38.7 5.24067 38.6368 5.08806 38.5243 4.97554C38.4117 4.86302 38.2591 4.7998 38.1 4.7998C37.9409 4.7998 37.7883 4.86302 37.6757 4.97554C37.5632 5.08806 37.5 5.24067 37.5 5.3998V6.42256C37.5 6.58169 37.5632 6.73429 37.6757 6.84681C37.7883 6.95933 37.9409 7.02255 38.1 7.02256V7.02256Z" fill="#3754DB"/>
<path d="M38.1 14.9996C38.2591 14.9996 38.4117 14.9364 38.5243 14.8239C38.6368 14.7113 38.7 14.5587 38.7 14.3996V13.3769C38.7 13.2177 38.6368 13.0651 38.5243 12.9526C38.4117 12.8401 38.2591 12.7769 38.1 12.7769C37.9409 12.7769 37.7883 12.8401 37.6757 12.9526C37.5632 13.0651 37.5 13.2177 37.5 13.3769V14.3996C37.5 14.5587 37.5632 14.7113 37.6757 14.8239C37.7883 14.9364 37.9409 14.9996 38.1 14.9996V14.9996Z" fill="#3754DB"/>
<path d="M40.9771 9.8998C40.9771 10.0589 41.0403 10.2115 41.1528 10.3241C41.2653 10.4366 41.4179 10.4998 41.5771 10.4998H42.5998C42.7589 10.4998 42.9115 10.4366 43.0241 10.3241C43.1366 10.2115 43.1998 10.0589 43.1998 9.8998C43.1998 9.74067 43.1366 9.58806 43.0241 9.47554C42.9115 9.36302 42.7589 9.2998 42.5998 9.2998H41.5771C41.4179 9.29981 41.2653 9.36303 41.1528 9.47555C41.0403 9.58807 40.9771 9.74068 40.9771 9.8998V9.8998Z" fill="#3754DB"/>
<path d="M33.6 10.4998H34.6228C34.7819 10.4998 34.9345 10.4366 35.047 10.3241C35.1595 10.2115 35.2228 10.0589 35.2228 9.8998C35.2228 9.74067 35.1595 9.58806 35.047 9.47554C34.9345 9.36302 34.7819 9.2998 34.6228 9.2998H33.6C33.4409 9.2998 33.2883 9.36302 33.1757 9.47554C33.0632 9.58806 33 9.74067 33 9.8998C33 10.0589 33.0632 10.2115 33.1757 10.3241C33.2883 10.4366 33.4409 10.4998 33.6 10.4998Z" fill="#3754DB"/>
<path d="M40.1343 11.9346C40.0785 11.9903 40.0343 12.0564 40.0042 12.1292C39.974 12.202 39.9585 12.28 39.9585 12.3588C39.9585 12.4376 39.974 12.5156 40.0042 12.5884C40.0343 12.6612 40.0785 12.7273 40.1343 12.783L40.8573 13.5061C40.9699 13.6182 41.1224 13.6811 41.2813 13.681C41.4402 13.6808 41.5926 13.6176 41.705 13.5052C41.8173 13.3929 41.8805 13.2405 41.8807 13.0816C41.8808 12.9227 41.8179 12.7702 41.7058 12.6576L40.9827 11.9346C40.927 11.8788 40.8609 11.8346 40.7881 11.8045C40.7153 11.7743 40.6373 11.7588 40.5585 11.7588C40.4797 11.7588 40.4017 11.7743 40.3289 11.8045C40.2561 11.8346 40.19 11.8788 40.1343 11.9346V11.9346Z" fill="#3754DB"/>
<path d="M35.2165 7.86475C35.2722 7.92049 35.3383 7.9647 35.4111 7.99488C35.4839 8.02505 35.562 8.04059 35.6408 8.0406C35.7196 8.04061 35.7976 8.0251 35.8704 7.99495C35.9432 7.9648 36.0094 7.9206 36.0651 7.86488C36.1208 7.80916 36.165 7.74301 36.1951 7.6702C36.2253 7.5974 36.2408 7.51937 36.2408 7.44057C36.2408 7.36177 36.2252 7.28374 36.1951 7.21094C36.1649 7.13815 36.1207 7.07201 36.0649 7.01631L35.3419 6.29326C35.2294 6.18081 35.0768 6.11765 34.9177 6.11768C34.7586 6.1177 34.6061 6.18091 34.4936 6.29339C34.3811 6.40588 34.3179 6.55844 34.3179 6.71752C34.3178 6.8766 34.381 7.02918 34.4935 7.1417L35.2165 7.86475Z" fill="#3754DB"/>
<path d="M35.1412 11.6072L34.46 12.2884C34.4043 12.3441 34.3601 12.4102 34.3299 12.483C34.2997 12.5558 34.2842 12.6338 34.2842 12.7126C34.2842 12.7914 34.2997 12.8694 34.3298 12.9422C34.36 13.0151 34.4042 13.0812 34.4599 13.1369C34.5156 13.1926 34.5818 13.2368 34.6546 13.267C34.7274 13.2971 34.8054 13.3127 34.8842 13.3126C34.963 13.3126 35.041 13.2971 35.1138 13.2669C35.1866 13.2367 35.2528 13.1925 35.3085 13.1368L35.9896 12.4556C36.1016 12.343 36.1644 12.1906 36.1642 12.0318C36.164 11.8729 36.1008 11.7206 35.9885 11.6083C35.8762 11.496 35.7239 11.4328 35.5651 11.4326C35.4062 11.4324 35.2538 11.4952 35.1412 11.6072L35.1412 11.6072Z" fill="#3754DB"/>
<path d="M40.1976 7.99909C40.2764 7.99919 40.3544 7.98371 40.4272 7.95354C40.5 7.92337 40.5661 7.87912 40.6218 7.82331L41.3029 7.14216C41.4149 7.02955 41.4777 6.87711 41.4775 6.71827C41.4773 6.55944 41.4141 6.40717 41.3018 6.29486C41.1895 6.18254 41.0372 6.11935 40.8784 6.11914C40.7195 6.11893 40.5671 6.18171 40.4545 6.29372L39.7733 6.97488C39.6895 7.05879 39.6323 7.16569 39.6092 7.28207C39.586 7.39844 39.5979 7.51907 39.6433 7.62869C39.6887 7.73832 39.7656 7.83202 39.8643 7.89795C39.9629 7.96388 40.0789 7.99908 40.1976 7.99909V7.99909Z" fill="#3754DB"/>
<path d="M38.5758 11.224C38.6884 11.3362 38.8409 11.3991 38.9998 11.3989C39.1587 11.3988 39.311 11.3356 39.4234 11.2232C39.5358 11.1108 39.599 10.9585 39.5991 10.7996C39.5993 10.6407 39.5364 10.4882 39.4242 10.3756L38.7 9.65137V8.3998C38.7 8.24067 38.6368 8.08806 38.5243 7.97554C38.4117 7.86302 38.2591 7.7998 38.1 7.7998C37.9409 7.7998 37.7883 7.86302 37.6757 7.97554C37.5632 8.08806 37.5 8.24067 37.5 8.3998V9.8998C37.5 10.0589 37.5633 10.2115 37.6758 10.324L38.5758 11.224Z" fill="#3754DB"/>
<path d="M9.83942 9.2998H12.1089L11.3432 11.9687C11.292 12.1474 11.2829 12.3355 11.3167 12.5182C11.3505 12.7009 11.4263 12.8733 11.5381 13.0217C11.6499 13.1702 11.7947 13.2906 11.9609 13.3736C12.1272 13.4566 12.3105 13.4998 12.4964 13.4998H17.5038C17.6896 13.4997 17.8729 13.4565 18.0392 13.3736C18.2055 13.2906 18.3502 13.1702 18.462 13.0217C18.5739 12.8733 18.6497 12.7009 18.6836 12.5182C18.7174 12.3355 18.7084 12.1474 18.6572 11.9687L17.4045 7.60322C17.2955 7.22826 17.068 6.89866 16.7561 6.66371C16.4442 6.42876 16.0647 6.30109 15.6742 6.2998H14.3259C13.9355 6.30109 13.5559 6.42876 13.244 6.66371C12.9321 6.89866 12.7047 7.22826 12.5957 7.60322L12.4532 8.0998H9.83942C9.59835 8.09894 9.36266 8.17108 9.16337 8.30673C8.96408 8.44238 8.81053 8.63518 8.72291 8.85976L6.77295 13.8086C7.17916 13.8313 7.57639 13.9372 7.94006 14.1196L9.83942 9.2998Z" fill="#3754DB"/>
<path d="M6.5998 18.6C7.59392 18.6 8.3998 17.7941 8.3998 16.8C8.3998 15.8059 7.59392 15 6.5998 15C5.60569 15 4.7998 15.8059 4.7998 16.8C4.7998 17.7941 5.60569 18.6 6.5998 18.6Z" fill="#3754DB"/>
</g>
<defs>
<clipPath id="clip0_1397_11817">
<rect width="38.4" height="38.4" fill="white" transform="translate(4.7998 4.7998)"/>
</clipPath>
</defs>
</svg>
