<svg width="152" height="133" viewBox="0 0 152 133" fill="none" xmlns="http://www.w3.org/2000/svg">
<path d="M62.7461 37.6631C58.8088 38.7922 56.5271 42.9086 57.6208 46.7228L78.9661 121.163C80.0952 125.1 84.2116 127.382 88.1489 126.253L144.133 110.2C148.07 109.071 150.352 104.954 149.223 101.017L127.877 26.5771C126.748 22.6397 122.667 20.481 118.73 21.61L108.518 24.5384L109.647 28.4757C110.776 32.4131 108.494 36.5294 104.557 37.6585L83.1473 43.7975C79.21 44.9265 75.0936 42.6447 73.9646 38.7074L72.8356 34.7701L62.7461 37.6631Z" fill="#6684FF"/>
<path d="M73.6029 28.1583L76.4254 38.0017C77.1663 40.5855 79.8578 42.0775 82.4417 41.3365L103.974 35.1623C106.558 34.4213 108.05 31.7299 107.309 29.146L104.486 19.3027C103.745 16.7188 101.054 15.2269 98.47 15.9678L96.2553 16.6029C96.22 16.4798 96.1847 16.3568 96.1494 16.2337C94.7735 11.4351 89.8655 8.71455 85.0668 10.0905C80.2682 11.4665 77.5477 16.3745 78.9236 21.1732C78.9589 21.2962 78.9942 21.4192 79.0295 21.5423L76.8147 22.1773C74.3892 23.006 72.8973 25.6975 73.6029 28.1583ZM86.5134 15.1352C88.6051 14.5354 90.6633 15.6763 91.2984 17.8911C91.3336 18.0141 91.3336 18.0141 91.3689 18.1372L83.9864 20.2541C83.9511 20.131 83.9159 20.008 83.8806 19.8849C83.3161 17.9163 84.4217 15.735 86.5134 15.1352Z" fill="#6684FF"/>
<path d="M32.5391 25.6101C28.6018 24.481 24.4854 26.7628 23.3917 30.5771L2.0463 105.017C0.917292 108.955 3.19905 113.071 7.13638 114.2L63.1203 130.253C67.0576 131.382 71.174 129.1 72.303 125.163L93.6484 50.7229C94.7774 46.7855 92.4603 42.7922 88.523 41.6632L78.3106 38.7348L77.1815 42.6721C76.0525 46.6095 71.9361 48.8912 67.9988 47.7622L46.5896 41.6232C42.6523 40.4942 40.3705 36.3778 41.4995 32.4405L42.6285 28.5031L32.5391 25.6101Z" fill="#FBBE37"/>
<path d="M46.7828 23.3026L43.9603 33.1459C43.2194 35.7298 44.7113 38.4213 47.2952 39.1622L68.8275 45.3365C71.4113 46.0774 74.1028 44.5855 74.8437 42.0016L77.6663 32.1583C78.4072 29.5744 76.9152 26.8829 74.3314 26.142L72.1166 25.507C72.1519 25.3839 72.1872 25.2609 72.2225 25.1378C73.5985 20.3392 70.8779 15.4312 66.0793 14.0552C61.2807 12.6792 56.3726 15.3998 54.9967 20.1984C54.9614 20.3215 54.9261 20.4445 54.8908 20.5675L52.6761 19.9325C50.18 19.3499 47.4885 20.8418 46.7828 23.3026ZM64.6327 19.0999C66.7244 19.6997 67.8653 21.7579 67.2303 23.9727C67.195 24.0957 67.195 24.0957 67.1597 24.2187L59.7772 22.1018C59.8125 21.9788 59.8478 21.8558 59.883 21.7327C60.4476 19.7641 62.541 18.5001 64.6327 19.0999Z" fill="#FBBE37"/>
<path d="M46.424 35.3521C42.328 35.3521 39 38.6801 39 42.6481V120.088C39 124.184 42.328 127.512 46.424 127.512H104.664C108.76 127.512 112.088 124.184 112.088 120.088V42.6481C112.088 38.5521 108.76 35.3521 104.664 35.3521H94.04V39.4481C94.04 43.5441 90.712 46.8721 86.616 46.8721H64.344C60.248 46.8721 56.92 43.5441 56.92 39.4481V35.3521H46.424Z" fill="#3754DB" stroke="white" stroke-width="2"/>
<path d="M59.48 29.208V39.448C59.48 42.136 61.656 44.312 64.344 44.312H86.744C89.432 44.312 91.608 42.136 91.608 39.448V29.208C91.608 26.52 89.432 24.344 86.744 24.344H84.44C84.44 24.216 84.44 24.088 84.44 23.96C84.44 18.968 80.472 15 75.48 15C70.488 15 66.52 18.968 66.52 23.96C66.52 24.088 66.52 24.216 66.52 24.344H64.216C61.656 24.472 59.48 26.648 59.48 29.208ZM75.48 20.248C77.656 20.248 79.32 21.912 79.32 24.216C79.32 24.344 79.32 24.344 79.32 24.472H71.64C71.64 24.344 71.64 24.216 71.64 24.088C71.64 22.04 73.304 20.248 75.48 20.248Z" fill="#3754DB"/>
</svg>
