<svg width="106" height="21" viewBox="0 0 106 21" fill="none" xmlns="http://www.w3.org/2000/svg">
<path d="M9.73182 2.62207L1.62195 6.67701L9.73182 10.7319L17.8417 6.67701L9.73182 2.62207Z" stroke="#3754DB" stroke-width="1.5" stroke-linecap="round" stroke-linejoin="round"/>
<path d="M1.62195 14.7871L9.73182 18.842L17.8417 14.7871" stroke="#3754DB" stroke-width="1.5" stroke-linecap="round" stroke-linejoin="round"/>
<path d="M1.62195 10.7314L9.73182 14.7864L17.8417 10.7314" stroke="#3754DB" stroke-width="1.5" stroke-linecap="round" stroke-linejoin="round"/>
<path d="M31.9532 5.87435V8.56636H23.4637V5.87435H31.9532ZM25.5597 2.33628H29.0401V16.2001C29.0401 16.668 29.1106 17.027 29.2516 17.2769C29.399 17.5205 29.5913 17.6872 29.8284 17.7769C30.0656 17.8666 30.3284 17.9115 30.6168 17.9115C30.8347 17.9115 31.0334 17.8955 31.2129 17.8634C31.3988 17.8314 31.5398 17.8025 31.6359 17.7769L32.2224 20.4977C32.0365 20.5618 31.7705 20.6323 31.4244 20.7093C31.0847 20.7862 30.6681 20.831 30.1745 20.8439C29.3028 20.8695 28.5177 20.7381 27.819 20.4497C27.1204 20.1548 26.566 19.6998 26.1558 19.0844C25.752 18.4691 25.5533 17.7 25.5597 16.777V2.33628Z" fill="#3754DB"/>
<path d="M34.3225 20.642V5.87435H37.6971V8.33562H37.8509C38.1201 7.48315 38.5816 6.82617 39.2354 6.36468C39.8956 5.89679 40.6487 5.66284 41.4947 5.66284C41.687 5.66284 41.9017 5.67245 42.1389 5.69168C42.3825 5.7045 42.5844 5.72693 42.7446 5.75898V8.96055C42.5972 8.90927 42.3632 8.86441 42.0428 8.82595C41.7287 8.78108 41.4242 8.75865 41.1294 8.75865C40.4948 8.75865 39.9244 8.89646 39.418 9.17207C38.9181 9.44127 38.5239 9.81623 38.2355 10.2969C37.9471 10.7777 37.8028 11.3321 37.8028 11.9602V20.642H34.3225Z" fill="#3754DB"/>
<path d="M48.5005 20.94C47.5647 20.94 46.7219 20.7734 45.9719 20.4401C45.2284 20.1004 44.6388 19.6004 44.2029 18.9402C43.7735 18.28 43.5587 17.466 43.5587 16.4982C43.5587 15.6649 43.7126 14.9759 44.0202 14.4311C44.3279 13.8863 44.7477 13.4504 45.2797 13.1236C45.8117 12.7967 46.411 12.5499 47.0776 12.3833C47.7506 12.2102 48.446 12.0852 49.1639 12.0083C50.0292 11.9186 50.731 11.8384 51.2694 11.7679C51.8078 11.691 52.1988 11.5756 52.4424 11.4218C52.6924 11.2616 52.8173 11.0148 52.8173 10.6815V10.6238C52.8173 9.89955 52.6026 9.33872 52.1732 8.94132C51.7437 8.54393 51.1252 8.34523 50.3176 8.34523C49.4651 8.34523 48.7889 8.53111 48.289 8.90287C47.7955 9.27462 47.4622 9.71367 47.2891 10.22L44.0395 9.75854C44.2958 8.8612 44.7189 8.11129 45.3086 7.50879C45.8982 6.89988 46.6193 6.4448 47.4718 6.14355C48.3242 5.8359 49.2664 5.68207 50.2984 5.68207C51.0098 5.68207 51.7181 5.76539 52.4232 5.93204C53.1282 6.09869 53.7724 6.3743 54.3556 6.75887C54.9389 7.13703 55.4068 7.653 55.7593 8.30678C56.1183 8.96055 56.2977 9.77777 56.2977 10.7584V20.642H52.9519V18.6133H52.8366C52.6251 19.0235 52.327 19.4081 51.9424 19.7671C51.5643 20.1196 51.0868 20.4048 50.5099 20.6227C49.9395 20.8342 49.2697 20.94 48.5005 20.94ZM49.4043 18.3826C50.1029 18.3826 50.7086 18.2448 51.2214 17.9692C51.7341 17.6872 52.1283 17.3154 52.4039 16.8539C52.6859 16.3924 52.827 15.8893 52.827 15.3445V13.6043C52.718 13.694 52.5321 13.7773 52.2693 13.8542C52.0129 13.9312 51.7245 13.9985 51.404 14.0561C51.0836 14.1138 50.7663 14.1651 50.4522 14.21C50.1381 14.2548 49.8657 14.2933 49.635 14.3253C49.1158 14.3959 48.6511 14.5112 48.2409 14.6715C47.8307 14.8317 47.507 15.056 47.2699 15.3445C47.0327 15.6265 46.9141 15.9918 46.9141 16.4405C46.9141 17.0815 47.1481 17.5654 47.616 17.8923C48.0839 18.2191 48.68 18.3826 49.4043 18.3826Z" fill="#3754DB"/>
<path d="M59.2559 20.642V5.87435H62.7362V20.642H59.2559ZM61.0057 3.77843C60.4544 3.77843 59.9801 3.59576 59.5827 3.23041C59.1854 2.85866 58.9867 2.4132 58.9867 1.89402C58.9867 1.36844 59.1854 0.922975 59.5827 0.55763C59.9801 0.185877 60.4544 0 61.0057 0C61.5633 0 62.0376 0.185877 62.4286 0.55763C62.826 0.922975 63.0247 1.36844 63.0247 1.89402C63.0247 2.4132 62.826 2.85866 62.4286 3.23041C62.0376 3.59576 61.5633 3.77843 61.0057 3.77843Z" fill="#3754DB"/>
<path d="M69.2541 0.951818V20.642H65.7737V0.951818H69.2541Z" fill="#3754DB"/>
<path d="M72.2915 20.642V5.87435H75.7719V20.642H72.2915ZM74.0413 3.77843C73.4901 3.77843 73.0158 3.59576 72.6184 3.23041C72.221 2.85866 72.0223 2.4132 72.0223 1.89402C72.0223 1.36844 72.221 0.922975 72.6184 0.55763C73.0158 0.185877 73.4901 0 74.0413 0C74.599 0 75.0733 0.185877 75.4643 0.55763C75.8617 0.922975 76.0604 1.36844 76.0604 1.89402C76.0604 2.4132 75.8617 2.85866 75.4643 3.23041C75.0733 3.59576 74.599 3.77843 74.0413 3.77843Z" fill="#3754DB"/>
<path d="M92.0002 5.87435L86.7412 20.642H82.8955L77.6364 5.87435H81.3476L84.7414 16.8443H84.8952L88.2987 5.87435H92.0002Z" fill="#3754DB"/>
<path d="M97.6936 20.94C96.7579 20.94 95.915 20.7734 95.1651 20.4401C94.4216 20.1004 93.8319 19.6004 93.396 18.9402C92.9666 18.28 92.7519 17.466 92.7519 16.4982C92.7519 15.6649 92.9057 14.9759 93.2134 14.4311C93.521 13.8863 93.9409 13.4504 94.4728 13.1236C95.0048 12.7967 95.6041 12.5499 96.2707 12.3833C96.9437 12.2102 97.6392 12.0852 98.357 12.0083C99.2223 11.9186 99.9242 11.8384 100.463 11.7679C101.001 11.691 101.392 11.5756 101.636 11.4218C101.885 11.2616 102.01 11.0148 102.01 10.6815V10.6238C102.01 9.89955 101.796 9.33872 101.366 8.94132C100.937 8.54393 100.318 8.34523 99.5108 8.34523C98.6583 8.34523 97.9821 8.53111 97.4821 8.90287C96.9886 9.27462 96.6553 9.71367 96.4822 10.22L93.2326 9.75854C93.489 8.8612 93.912 8.11129 94.5017 7.50879C95.0914 6.89988 95.8124 6.4448 96.6649 6.14355C97.5174 5.8359 98.4596 5.68207 99.4915 5.68207C100.203 5.68207 100.911 5.76539 101.616 5.93204C102.321 6.09869 102.966 6.3743 103.549 6.75887C104.132 7.13703 104.6 7.653 104.952 8.30678C105.311 8.96055 105.491 9.77777 105.491 10.7584V20.642H102.145V18.6133H102.03C101.818 19.0235 101.52 19.4081 101.136 19.7671C100.757 20.1196 100.28 20.4048 99.703 20.6227C99.1326 20.8342 98.4628 20.94 97.6936 20.94ZM98.5974 18.3826C99.296 18.3826 99.9017 18.2448 100.414 17.9692C100.927 17.6872 101.321 17.3154 101.597 16.8539C101.879 16.3924 102.02 15.8893 102.02 15.3445V13.6043C101.911 13.694 101.725 13.7773 101.462 13.8542C101.206 13.9312 100.918 13.9985 100.597 14.0561C100.277 14.1138 99.9594 14.1651 99.6454 14.21C99.3313 14.2548 99.0589 14.2933 98.8281 14.3253C98.309 14.3959 97.8443 14.5112 97.4341 14.6715C97.0239 14.8317 96.7002 15.056 96.463 15.3445C96.2259 15.6265 96.1073 15.9918 96.1073 16.4405C96.1073 17.0815 96.3412 17.5654 96.8091 17.8923C97.277 18.2191 97.8731 18.3826 98.5974 18.3826Z" fill="#3754DB"/>
</svg>
