<svg width="38" height="38" viewBox="0 0 38 38" fill="none" xmlns="http://www.w3.org/2000/svg">
<path d="M16.6491 9.61713C17.2871 7.12746 20.826 7.12746 21.464 9.61713C21.8451 11.1047 23.4978 11.8819 24.8996 11.2551C27.2235 10.2161 29.4703 12.9387 27.9159 14.9546C26.9773 16.1719 27.38 17.9436 28.753 18.6347C31.0292 19.7802 30.2183 23.2088 27.6708 23.2669C26.1356 23.3019 24.9967 24.722 25.3078 26.2257C25.8256 28.728 22.6209 30.2234 20.9686 28.2743C19.9745 27.1017 18.1386 27.1017 17.1445 28.2743C15.4921 30.2234 12.2875 28.728 12.8052 26.2257C13.1164 24.722 11.9774 23.3019 10.4423 23.2669C7.89475 23.2088 7.08388 19.7802 9.36004 18.6347C10.7331 17.9436 11.1357 16.1719 10.1971 14.9546C8.64277 12.9387 10.8896 10.2161 13.2135 11.2551C14.6153 11.8819 16.2679 11.1047 16.6491 9.61713Z" fill="#6684FF" stroke="white" stroke-width="1.5"/>
<path d="M22.6619 16.2225L17.7042 21.1114L15.4507 18.8892" stroke="white" stroke-width="1.5" stroke-linecap="round" stroke-linejoin="round"/>
</svg>
