<svg width="32" height="32" viewBox="0 0 32 32" fill="none" xmlns="http://www.w3.org/2000/svg">
<path d="M13.2842 25.6371C13.9508 25.496 18.0123 25.496 18.6789 25.6371C19.2487 25.7687 19.8649 26.0762 19.8649 26.7476C19.8318 27.3868 19.4567 27.9535 18.9386 28.3134C18.2668 28.8371 17.4783 29.1688 16.6541 29.2884C16.1982 29.3474 15.7503 29.3488 15.3104 29.2884C14.4848 29.1688 13.6963 28.8371 13.0258 28.3121C12.5063 27.9535 12.1313 27.3868 12.0982 26.7476C12.0982 26.0762 12.7144 25.7687 13.2842 25.6371ZM16.0603 2.6665C18.8338 2.6665 21.667 3.98253 23.3499 6.16606C24.4418 7.57206 24.9427 8.97671 24.9427 11.1602V11.7283C24.9427 13.4029 25.3853 14.3899 26.3593 15.5273C27.0974 16.3653 27.3333 17.4409 27.3333 18.6079C27.3333 19.7735 26.9503 20.88 26.1831 21.7784C25.1786 22.8554 23.762 23.543 22.3163 23.6625C20.2212 23.8411 18.1248 23.9915 16.0006 23.9915C13.8751 23.9915 11.78 23.9015 9.68496 23.6625C8.2379 23.543 6.82132 22.8554 5.81818 21.7784C5.05092 20.88 4.66663 19.7735 4.66663 18.6079C4.66663 17.4409 4.90383 16.3653 5.64061 15.5273C6.64507 14.3899 7.05852 13.4029 7.05852 11.7283V11.1602C7.05852 8.91762 7.61773 7.4512 8.76929 6.01565C10.4814 3.9221 13.2258 2.6665 15.941 2.6665H16.0603Z" fill="#3754DB"/>
<ellipse cx="22.6667" cy="5.33333" rx="5.33333" ry="5.33333" fill="#FF113A"/>
</svg>
