<svg width="48" height="48" viewBox="0 0 48 48" fill="none" xmlns="http://www.w3.org/2000/svg">
<rect width="48" height="48" rx="12" fill="#F6F8FD"/>
<g clip-path="url(#clip0_624_6015)">
<path d="M35.25 25.3125H34.0519L34.0106 26.0625H35.25V26.8125H33.1613C33.2066 26.6994 33.2332 26.5798 33.24 26.4581L33.2419 26.4375V26.4169L33.2606 26.0625L33.3019 25.3125L33.5231 21.1425C33.523 21.0002 33.4948 20.8594 33.4401 20.7281C33.3855 20.5967 33.3054 20.4775 33.2045 20.3771C33.1037 20.2768 32.984 20.1973 32.8524 20.1434C32.7208 20.0894 32.5798 20.0619 32.4375 20.0625H23.4375C23.2952 20.0619 23.1542 20.0894 23.0226 20.1434C22.891 20.1973 22.7713 20.2768 22.6705 20.3771C22.5696 20.4775 22.4895 20.5967 22.4349 20.7281C22.3802 20.8594 22.352 21.0002 22.3519 21.1425L22.5731 25.3125L22.6144 26.0625L22.6331 26.4169V26.4375L22.635 26.4581C22.6418 26.5798 22.6684 26.6995 22.7137 26.8125H12.75V26.0625H21.8644L21.8231 25.3125H12.75C12.6515 25.3125 12.554 25.3319 12.463 25.3695C12.3719 25.4072 12.2893 25.4625 12.2196 25.5321C12.15 25.6018 12.0947 25.6845 12.057 25.7755C12.0194 25.8665 12 25.964 12 26.0625V26.8125C12 26.911 12.0194 27.0085 12.057 27.0996C12.0947 27.1906 12.15 27.2732 12.2196 27.3429C12.2893 27.4125 12.372 27.4678 12.463 27.5055C12.554 27.5432 12.6515 27.5625 12.75 27.5625H13.6875V35.625C13.6875 35.7245 13.727 35.8198 13.7973 35.8902C13.8677 35.9605 13.963 36 14.0625 36C14.162 36 14.2573 35.9605 14.3277 35.8902C14.398 35.8198 14.4375 35.7245 14.4375 35.625V29.8125H25.6875V35.625C25.6875 35.7245 25.727 35.8198 25.7973 35.8902C25.8677 35.9605 25.963 36 26.0625 36C26.162 36 26.2573 35.9605 26.3277 35.8902C26.398 35.8198 26.4375 35.7245 26.4375 35.625V32.625H33.5625V35.625C33.5625 35.7245 33.602 35.8198 33.6723 35.8902C33.7427 35.9605 33.838 36 33.9375 36C34.037 36 34.1323 35.9605 34.2027 35.8902C34.273 35.8198 34.3125 35.7245 34.3125 35.625V27.5625H35.25C35.3485 27.5625 35.446 27.5432 35.537 27.5055C35.6281 27.4678 35.7107 27.4125 35.7804 27.3429C35.85 27.2733 35.9053 27.1906 35.943 27.0996C35.9806 27.0085 36 26.911 36 26.8125V26.0625C36 25.964 35.9806 25.8665 35.943 25.7755C35.9053 25.6845 35.85 25.6018 35.7804 25.5321C35.7107 25.4625 35.6281 25.4072 35.537 25.3695C35.446 25.3319 35.3485 25.3125 35.25 25.3125ZM27.9375 22.5C28.1971 22.5 28.4508 22.577 28.6667 22.7212C28.8825 22.8654 29.0508 23.0704 29.1501 23.3102C29.2494 23.5501 29.2754 23.814 29.2248 24.0686C29.1741 24.3232 29.0491 24.557 28.8656 24.7406C28.682 24.9241 28.4482 25.0491 28.1936 25.0998C27.939 25.1504 27.6751 25.1244 27.4352 25.0251C27.1954 24.9258 26.9904 24.7575 26.8462 24.5417C26.702 24.3259 26.625 24.0721 26.625 23.8125C26.6254 23.4645 26.7638 23.1309 27.0098 22.8849C27.2559 22.6388 27.5895 22.5004 27.9375 22.5ZM33.5625 29.0625H14.4375V27.5625H33.5625V29.0625Z" fill="#3754DB"/>
<path d="M13.7532 24.5625H17.372C17.2949 24.3431 17.1516 24.153 16.9618 24.0186C16.772 23.8843 16.5451 23.8122 16.3126 23.8125H15.7426L14.2313 21.0112C14.0271 21.1602 13.795 21.2667 13.5488 21.3244L14.8913 23.8125H14.8126C14.58 23.8122 14.3532 23.8843 14.1634 24.0186C13.9736 24.153 13.8302 24.3431 13.7532 24.5625Z" fill="#3754DB"/>
<path d="M27.9375 24.375C28.2482 24.375 28.5 24.1232 28.5 23.8125C28.5 23.5018 28.2482 23.25 27.9375 23.25C27.6268 23.25 27.375 23.5018 27.375 23.8125C27.375 24.1232 27.6268 24.375 27.9375 24.375Z" fill="#3754DB"/>
<path d="M32.8125 13.3892C32.912 13.3892 33.0073 13.3497 33.0777 13.2794C33.148 13.2091 33.1875 13.1137 33.1875 13.0142V12.375C33.1875 12.2755 33.148 12.1802 33.0777 12.1098C33.0073 12.0395 32.912 12 32.8125 12C32.713 12 32.6177 12.0395 32.5473 12.1098C32.477 12.1802 32.4375 12.2755 32.4375 12.375V13.0142C32.4375 13.1137 32.477 13.2091 32.5473 13.2794C32.6177 13.3497 32.713 13.3892 32.8125 13.3892Z" fill="#3754DB"/>
<path d="M32.8125 18.3751C32.912 18.3751 33.0073 18.3355 33.0777 18.2652C33.148 18.1949 33.1875 18.0995 33.1875 18.0001V17.3608C33.1875 17.2614 33.148 17.166 33.0777 17.0957C33.0073 17.0253 32.912 16.9858 32.8125 16.9858C32.713 16.9858 32.6177 17.0253 32.5473 17.0957C32.477 17.166 32.4375 17.2614 32.4375 17.3608V18.0001C32.4375 18.0995 32.477 18.1949 32.5473 18.2652C32.6177 18.3355 32.713 18.3751 32.8125 18.3751Z" fill="#3754DB"/>
<path d="M34.6107 15.1875C34.6107 15.287 34.6502 15.3823 34.7206 15.4527C34.7909 15.523 34.8863 15.5625 34.9857 15.5625H35.6249C35.7244 15.5625 35.8198 15.523 35.8901 15.4527C35.9604 15.3823 35.9999 15.287 35.9999 15.1875C35.9999 15.088 35.9604 14.9927 35.8901 14.9223C35.8198 14.852 35.7244 14.8125 35.6249 14.8125H34.9857C34.8863 14.8125 34.7909 14.852 34.7206 14.9223C34.6502 14.9927 34.6107 15.088 34.6107 15.1875Z" fill="#3754DB"/>
<path d="M30 15.5625H30.6392C30.7387 15.5625 30.8341 15.523 30.9044 15.4527C30.9747 15.3823 31.0142 15.287 31.0142 15.1875C31.0142 15.088 30.9747 14.9927 30.9044 14.9223C30.8341 14.852 30.7387 14.8125 30.6392 14.8125H30C29.9005 14.8125 29.8052 14.852 29.7348 14.9223C29.6645 14.9927 29.625 15.088 29.625 15.1875C29.625 15.287 29.6645 15.3823 29.7348 15.4527C29.8052 15.523 29.9005 15.5625 30 15.5625Z" fill="#3754DB"/>
<path d="M34.0841 16.459C34.0493 16.4938 34.0216 16.5351 34.0028 16.5806C33.9839 16.6261 33.9742 16.6749 33.9742 16.7241C33.9742 16.7734 33.9839 16.8221 34.0028 16.8676C34.0216 16.9131 34.0493 16.9544 34.0841 16.9893L34.536 17.4412C34.6064 17.5113 34.7017 17.5506 34.801 17.5505C34.9003 17.5504 34.9955 17.5109 35.0658 17.4407C35.136 17.3704 35.1755 17.2752 35.1756 17.1759C35.1757 17.0766 35.1364 16.9813 35.0663 16.9109L34.6144 16.459C34.5796 16.4242 34.5382 16.3965 34.4927 16.3777C34.4473 16.3588 34.3985 16.3491 34.3492 16.3491C34.3 16.3491 34.2512 16.3588 34.2057 16.3777C34.1603 16.3965 34.1189 16.4242 34.0841 16.459Z" fill="#3754DB"/>
<path d="M31.0106 13.9156C31.0454 13.9505 31.0868 13.9781 31.1323 13.997C31.1778 14.0158 31.2265 14.0255 31.2758 14.0256C31.325 14.0256 31.3738 14.0159 31.4193 13.997C31.4648 13.9782 31.5062 13.9506 31.541 13.9157C31.5758 13.8809 31.6034 13.8396 31.6223 13.7941C31.6411 13.7486 31.6508 13.6998 31.6508 13.6505C31.6508 13.6013 31.6411 13.5525 31.6222 13.507C31.6034 13.4615 31.5757 13.4202 31.5409 13.3854L31.089 12.9335C31.0187 12.8632 30.9233 12.8237 30.8239 12.8237C30.7245 12.8237 30.6291 12.8632 30.5588 12.9336C30.4885 13.0039 30.449 13.0992 30.449 13.1986C30.449 13.2981 30.4884 13.3934 30.5587 13.4637L31.0106 13.9156Z" fill="#3754DB"/>
<path d="M30.9631 16.2546L30.5374 16.6803C30.5026 16.7152 30.4749 16.7565 30.4561 16.802C30.4372 16.8475 30.4275 16.8963 30.4275 16.9455C30.4275 16.9948 30.4372 17.0435 30.456 17.089C30.4749 17.1345 30.5025 17.1759 30.5373 17.2107C30.5721 17.2455 30.6135 17.2731 30.659 17.292C30.7045 17.3108 30.7533 17.3205 30.8025 17.3205C30.8518 17.3205 30.9005 17.3108 30.946 17.2919C30.9915 17.2731 31.0329 17.2455 31.0677 17.2106L31.4934 16.7849C31.5634 16.7145 31.6026 16.6192 31.6025 16.52C31.6024 16.4207 31.5629 16.3255 31.4927 16.2553C31.4225 16.1851 31.3273 16.1456 31.228 16.1455C31.1288 16.1454 31.0335 16.1846 30.9631 16.2546L30.9631 16.2546Z" fill="#3754DB"/>
<path d="M34.1235 13.9997C34.1727 13.9997 34.2215 13.9901 34.267 13.9712C34.3125 13.9524 34.3538 13.9247 34.3886 13.8898L34.8143 13.4641C34.8843 13.3937 34.9236 13.2984 34.9235 13.1992C34.9233 13.0999 34.8838 13.0047 34.8136 12.9345C34.7434 12.8643 34.6483 12.8248 34.549 12.8247C34.4497 12.8246 34.3544 12.8638 34.2841 12.9338L33.8583 13.3595C33.8059 13.412 33.7702 13.4788 33.7557 13.5515C33.7413 13.6243 33.7487 13.6997 33.7771 13.7682C33.8055 13.8367 33.8535 13.8953 33.9152 13.9365C33.9768 13.9777 34.0493 13.9997 34.1235 13.9997Z" fill="#3754DB"/>
<path d="M33.1099 16.0151C33.1802 16.0852 33.2755 16.1245 33.3749 16.1245C33.4742 16.1244 33.5694 16.0849 33.6396 16.0146C33.7099 15.9444 33.7494 15.8492 33.7495 15.7499C33.7496 15.6505 33.7102 15.5552 33.6401 15.4849L33.1875 15.0322V14.25C33.1875 14.1505 33.148 14.0552 33.0777 13.9848C33.0073 13.9145 32.912 13.875 32.8125 13.875C32.713 13.875 32.6177 13.9145 32.5473 13.9848C32.477 14.0552 32.4375 14.1505 32.4375 14.25V15.1875C32.4375 15.2869 32.477 15.3823 32.5474 15.4526L33.1099 16.0151Z" fill="#3754DB"/>
<path d="M15.1496 14.8125H16.568L16.0895 16.4806C16.0574 16.5922 16.0517 16.7098 16.0729 16.824C16.094 16.9382 16.1414 17.0459 16.2113 17.1387C16.2811 17.2315 16.3716 17.3068 16.4755 17.3586C16.5795 17.4105 16.694 17.4375 16.8102 17.4375H19.9398C20.0559 17.4375 20.1705 17.4104 20.2744 17.3586C20.3784 17.3067 20.4688 17.2315 20.5387 17.1387C20.6086 17.0459 20.656 16.9382 20.6772 16.824C20.6983 16.7098 20.6927 16.5922 20.6607 16.4806L19.8777 13.7521C19.8096 13.5178 19.6674 13.3118 19.4725 13.1649C19.2776 13.0181 19.0404 12.9383 18.7963 12.9375H17.9537C17.7096 12.9383 17.4724 13.0181 17.2774 13.1649C17.0825 13.3118 16.9403 13.5178 16.8722 13.7521L16.7832 14.0625H15.1496C14.9989 14.062 14.8516 14.107 14.727 14.1918C14.6025 14.2766 14.5065 14.3971 14.4518 14.5375L13.233 17.6305C13.4869 17.6447 13.7352 17.7109 13.9625 17.8249L15.1496 14.8125Z" fill="#3754DB"/>
<path d="M13.125 20.625C13.7463 20.625 14.25 20.1213 14.25 19.5C14.25 18.8787 13.7463 18.375 13.125 18.375C12.5037 18.375 12 18.8787 12 19.5C12 20.1213 12.5037 20.625 13.125 20.625Z" fill="#3754DB"/>
</g>
<defs>
<clipPath id="clip0_624_6015">
<rect width="24" height="24" fill="white" transform="translate(12 12)"/>
</clipPath>
</defs>
</svg>
