<svg width="24" height="24" viewBox="0 0 24 24" fill="none" xmlns="http://www.w3.org/2000/svg">
<path d="M7.91982 13.4697C9.32982 13.4697 10.4598 14.6107 10.4598 16.0307V19.4397C10.4598 20.8497 9.32982 21.9997 7.91982 21.9997H4.53982C3.13982 21.9997 1.99982 20.8497 1.99982 19.4397V16.0307C1.99982 14.6107 3.13982 13.4697 4.53982 13.4697H7.91982ZM19.4599 13.4697C20.8599 13.4697 21.9999 14.6107 21.9999 16.0307V19.4397C21.9999 20.8497 20.8599 21.9997 19.4599 21.9997H16.0799C14.6699 21.9997 13.5399 20.8497 13.5399 19.4397V16.0307C13.5399 14.6107 14.6699 13.4697 16.0799 13.4697H19.4599ZM7.91982 2C9.32982 2 10.4598 3.15 10.4598 4.561V7.97C10.4598 9.39 9.32982 10.53 7.91982 10.53H4.53982C3.13982 10.53 1.99982 9.39 1.99982 7.97V4.561C1.99982 3.15 3.13982 2 4.53982 2H7.91982ZM19.4599 2C20.8599 2 21.9999 3.15 21.9999 4.561V7.97C21.9999 9.39 20.8599 10.53 19.4599 10.53H16.0799C14.6699 10.53 13.5399 9.39 13.5399 7.97V4.561C13.5399 3.15 14.6699 2 16.0799 2H19.4599Z" fill="#3754DB"/>
</svg>
