<svg width="48" height="48" viewBox="0 0 48 48" fill="none" xmlns="http://www.w3.org/2000/svg">
<rect width="48" height="48" rx="12" fill="#F6F8FD"/>
<g clip-path="url(#clip0_624_5984)">
<path d="M12.375 35.9998C12.4745 35.9998 12.5698 35.9603 12.6402 35.89C12.7105 35.8197 12.75 35.7243 12.75 35.6248V33.2351C12.75 31.6115 13.7909 30.5623 15.4017 30.5623H16.1464C15.7519 30.3776 15.3907 30.1288 15.0773 29.8262C13.2236 29.9654 12 31.2989 12 33.2351V35.6248C12 35.7243 12.0395 35.8197 12.1098 35.89C12.1802 35.9603 12.2755 35.9998 12.375 35.9998Z" fill="#3754DB"/>
<path d="M19.4786 30.5623H20.2237C21.8343 30.5623 22.875 31.6115 22.875 33.2351V35.6248C22.875 35.7243 22.9145 35.8197 22.9848 35.89C23.0552 35.9603 23.1505 35.9998 23.25 35.9998C23.3495 35.9998 23.4448 35.9603 23.5152 35.89C23.5855 35.8197 23.625 35.7243 23.625 35.6248V33.2351C23.625 31.2988 22.4014 29.9653 20.5477 29.8262C20.2343 30.1288 19.8731 30.3776 19.4786 30.5623Z" fill="#3754DB"/>
<path d="M14.625 27C14.625 27.6304 14.8119 28.2467 15.1622 28.7709C15.5124 29.2951 16.0103 29.7036 16.5927 29.9449C17.1751 30.1861 17.816 30.2492 18.4344 30.1263C19.0527 30.0033 19.6206 29.6997 20.0664 29.2539C20.5122 28.8081 20.8158 28.2402 20.9388 27.6219C21.0617 27.0035 20.9986 26.3626 20.7574 25.7802C20.5161 25.1978 20.1076 24.6999 19.5834 24.3497C19.0592 23.9994 18.4429 23.8125 17.8125 23.8125C16.9674 23.8134 16.1572 24.1496 15.5596 24.7471C14.9621 25.3447 14.6259 26.1549 14.625 27Z" fill="#3754DB"/>
<path d="M24.375 33.2351V35.6248C24.375 35.7243 24.4145 35.8197 24.4848 35.89C24.5552 35.9603 24.6505 35.9998 24.75 35.9998C24.8495 35.9998 24.9448 35.9603 25.0152 35.89C25.0855 35.8197 25.125 35.7243 25.125 35.6248V33.2351C25.125 31.6115 26.1659 30.5623 27.7767 30.5623H28.5214C28.1269 30.3776 27.7657 30.1288 27.4523 29.8262C25.5986 29.9654 24.375 31.2989 24.375 33.2351Z" fill="#3754DB"/>
<path d="M32.9227 29.8262C32.6093 30.1288 32.2481 30.3776 31.8536 30.5623H32.5987C34.2093 30.5623 35.25 31.6115 35.25 33.2351V35.6248C35.25 35.7243 35.2895 35.8197 35.3598 35.89C35.4302 35.9603 35.5255 35.9998 35.625 35.9998C35.7245 35.9998 35.8198 35.9603 35.8902 35.89C35.9605 35.8197 36 35.7243 36 35.6248V33.2351C36 31.2988 34.7764 29.9653 32.9227 29.8262Z" fill="#3754DB"/>
<path d="M33.375 27C33.375 26.3696 33.1881 25.7533 32.8378 25.2291C32.4876 24.7049 31.9897 24.2964 31.4073 24.0551C30.8249 23.8139 30.184 23.7508 29.5657 23.8737C28.9473 23.9967 28.3794 24.3003 27.9336 24.7461C27.4878 25.1919 27.1842 25.7598 27.0612 26.3782C26.9383 26.9965 27.0014 27.6374 27.2426 28.2198C27.4839 28.8022 27.8924 29.3001 28.4166 29.6503C28.9408 30.0006 29.5571 30.1875 30.1875 30.1875C31.0326 30.1866 31.8428 29.8504 32.4404 29.2529C33.0379 28.6553 33.3741 27.8451 33.375 27Z" fill="#3754DB"/>
<path d="M24 14.0625C23.3082 14.0592 22.6433 14.3304 22.1512 14.8166C21.6591 15.3028 21.3799 15.9644 21.375 16.6562C21.3753 17.2815 21.6033 17.8854 22.0163 18.3549C22.0332 18.3743 22.062 18.4051 22.0955 18.4406C22.1447 18.4929 22.2073 18.5585 22.2429 18.6034C22.4111 18.8181 22.5509 19.0536 22.6588 19.3041C22.7125 19.4319 22.7554 19.564 22.7871 19.699C22.6978 19.7204 22.6196 19.7738 22.5671 19.8491C22.5147 19.9243 22.4917 20.0163 22.5025 20.1074C22.5134 20.1985 22.5573 20.2824 22.626 20.3433C22.6946 20.4042 22.7832 20.4377 22.875 20.4375H25.125C25.2168 20.4377 25.3054 20.4041 25.374 20.3432C25.4427 20.2823 25.4866 20.1984 25.4974 20.1072C25.5082 20.0161 25.4852 19.9242 25.4327 19.8489C25.3802 19.7737 25.302 19.7203 25.2127 19.6989C25.2437 19.5671 25.2854 19.4381 25.3373 19.3131C25.4261 19.0998 25.5362 18.896 25.6659 18.7048C25.7283 18.6243 25.7963 18.5483 25.8693 18.4774L25.894 18.4523C26.3632 17.9723 26.6256 17.3275 26.625 16.6562C26.6201 15.9644 26.3409 15.3028 25.8488 14.8166C25.3567 14.3304 24.6918 14.0592 24 14.0625Z" fill="#3754DB"/>
<path d="M24.375 13.0576V12.375C24.375 12.2755 24.3355 12.1802 24.2652 12.1098C24.1948 12.0395 24.0995 12 24 12C23.9005 12 23.8052 12.0395 23.7348 12.1098C23.6645 12.1802 23.625 12.2755 23.625 12.375V13.0576C23.625 13.1571 23.6645 13.2525 23.7348 13.3228C23.8052 13.3931 23.9005 13.4326 24 13.4326C24.0995 13.4326 24.1948 13.3931 24.2652 13.3228C24.3355 13.2525 24.375 13.1571 24.375 13.0576Z" fill="#3754DB"/>
<path d="M22.5543 13.7182C22.616 13.7181 22.6767 13.7027 22.7311 13.6735C22.7855 13.6444 22.8318 13.6022 22.866 13.5509C22.9002 13.4995 22.9212 13.4405 22.9272 13.3791C22.9332 13.3177 22.9239 13.2557 22.9003 13.1988L22.6375 12.5681C22.5992 12.4763 22.526 12.4035 22.434 12.3656C22.3421 12.3278 22.2388 12.328 22.147 12.3663C22.0552 12.4045 21.9823 12.4777 21.9445 12.5697C21.9066 12.6617 21.9069 12.7649 21.9451 12.8567L22.208 13.4873C22.2365 13.5557 22.2846 13.6141 22.3462 13.6552C22.4078 13.6963 22.4802 13.7182 22.5543 13.7182Z" fill="#3754DB"/>
<path d="M21.5929 13.891L21.1072 13.4083C21.0366 13.3382 20.9411 13.299 20.8416 13.2993C20.7422 13.2996 20.6469 13.3395 20.5768 13.41C20.5067 13.4806 20.4675 13.5761 20.4678 13.6756C20.4682 13.775 20.508 13.8703 20.5785 13.9404L21.0642 14.4231C21.1348 14.4932 21.2303 14.5324 21.3298 14.532C21.4292 14.5317 21.5245 14.4919 21.5946 14.4213C21.6647 14.3508 21.7039 14.2552 21.7036 14.1558C21.7032 14.0563 21.6634 13.9611 21.5929 13.891Z" fill="#3754DB"/>
<path d="M19.5282 14.971C19.4903 15.063 19.4905 15.1663 19.5288 15.2581C19.5671 15.3499 19.6402 15.4228 19.7322 15.4607L20.3669 15.7219C20.4588 15.7598 20.5621 15.7596 20.6539 15.7213C20.7457 15.683 20.8185 15.6099 20.8564 15.5179C20.8943 15.4259 20.894 15.3226 20.8557 15.2308C20.8175 15.139 20.7443 15.0662 20.6523 15.0283L20.0177 14.767C19.9721 14.7483 19.9234 14.7387 19.8741 14.7388C19.8249 14.7389 19.7761 14.7487 19.7307 14.7676C19.6852 14.7866 19.6439 14.8143 19.6092 14.8492C19.5744 14.8841 19.5469 14.9255 19.5282 14.971Z" fill="#3754DB"/>
<path d="M27.9822 14.767L27.3476 15.0283C27.302 15.047 27.2606 15.0746 27.2257 15.1093C27.1908 15.144 27.1631 15.1853 27.1442 15.2308C27.1252 15.2762 27.1154 15.325 27.1153 15.3742C27.1152 15.4235 27.1248 15.4723 27.1435 15.5178C27.1623 15.5634 27.1898 15.6048 27.2245 15.6397C27.2593 15.6746 27.3006 15.7023 27.346 15.7212C27.3915 15.7402 27.4402 15.75 27.4895 15.7501C27.5387 15.7502 27.5875 15.7406 27.633 15.7219L28.2677 15.4606C28.3597 15.4227 28.4328 15.3499 28.4711 15.2581C28.5094 15.1663 28.5096 15.063 28.4718 14.9711C28.4339 14.8791 28.3611 14.8059 28.2693 14.7676C28.1775 14.7294 28.0742 14.7291 27.9822 14.767Z" fill="#3754DB"/>
<path d="M26.8927 13.4083L26.407 13.891C26.3365 13.9611 26.2967 14.0563 26.2963 14.1558C26.296 14.2552 26.3352 14.3508 26.4053 14.4213C26.4754 14.4919 26.5707 14.5317 26.6701 14.532C26.7696 14.5324 26.8651 14.4932 26.9357 14.4231L27.4214 13.9404C27.4919 13.8703 27.5317 13.775 27.5321 13.6756C27.5324 13.5761 27.4932 13.4806 27.4231 13.41C27.353 13.3395 27.2577 13.2996 27.1583 13.2993C27.0588 13.299 26.9633 13.3382 26.8927 13.4083Z" fill="#3754DB"/>
<path d="M25.8529 12.3668C25.7611 12.3285 25.6579 12.3283 25.5659 12.3661C25.4739 12.4039 25.4007 12.4768 25.3624 12.5685L25.0996 13.1991C25.0806 13.2446 25.0707 13.2934 25.0706 13.3427C25.0704 13.392 25.08 13.4408 25.0987 13.4864C25.1174 13.532 25.145 13.5734 25.1797 13.6084C25.2145 13.6433 25.2558 13.6711 25.3013 13.69C25.3468 13.709 25.3956 13.7188 25.4449 13.7189C25.4942 13.719 25.543 13.7094 25.5885 13.6906C25.6341 13.6718 25.6755 13.6442 25.7104 13.6094C25.7453 13.5746 25.773 13.5332 25.7919 13.4877L26.0548 12.8571C26.0737 12.8117 26.0835 12.7629 26.0836 12.7137C26.0837 12.6644 26.0741 12.6157 26.0554 12.5701C26.0366 12.5246 26.0091 12.4832 25.9744 12.4483C25.9396 12.4134 25.8983 12.3857 25.8529 12.3668Z" fill="#3754DB"/>
<path d="M18 18.9375C18 19.2342 18.088 19.5242 18.2528 19.7709C18.4176 20.0175 18.6519 20.2098 18.926 20.3233C19.2001 20.4369 19.5017 20.4666 19.7926 20.4087C20.0836 20.3508 20.3509 20.2079 20.5607 19.9982C20.7704 19.7884 20.9133 19.5211 20.9712 19.2301C21.0291 18.9392 20.9994 18.6376 20.8858 18.3635C20.7723 18.0894 20.58 17.8551 20.3334 17.6903C20.0867 17.5255 19.7967 17.4375 19.5 17.4375C19.1023 17.438 18.721 17.5961 18.4398 17.8773C18.1586 18.1585 18.0005 18.5398 18 18.9375ZM19.5 18.1875C19.6483 18.1875 19.7933 18.2315 19.9167 18.3139C20.04 18.3963 20.1361 18.5134 20.1929 18.6505C20.2497 18.7875 20.2645 18.9383 20.2356 19.0838C20.2067 19.2293 20.1352 19.3629 20.0303 19.4678C19.9254 19.5727 19.7918 19.6442 19.6463 19.6731C19.5008 19.702 19.35 19.6872 19.213 19.6304C19.0759 19.5736 18.9588 19.4775 18.8764 19.3542C18.794 19.2308 18.75 19.0858 18.75 18.9375C18.7502 18.7387 18.8293 18.548 18.9699 18.4074C19.1105 18.2668 19.3012 18.1877 19.5 18.1875Z" fill="#3754DB"/>
<path d="M16.875 21.9375C16.875 22.16 16.941 22.3775 17.0646 22.5625C17.1882 22.7475 17.3639 22.8917 17.5695 22.9769C17.775 23.062 18.0012 23.0843 18.2195 23.0409C18.4377 22.9975 18.6382 22.8903 18.7955 22.733C18.9528 22.5757 19.06 22.3752 19.1034 22.157C19.1468 21.9387 19.1245 21.7125 19.0394 21.507C18.9542 21.3014 18.81 21.1257 18.625 21.0021C18.44 20.8785 18.2225 20.8125 18 20.8125C17.7017 20.8128 17.4158 20.9315 17.2049 21.1424C16.994 21.3533 16.8753 21.6392 16.875 21.9375ZM18.375 21.9375C18.375 22.0117 18.353 22.0842 18.3118 22.1458C18.2706 22.2075 18.212 22.2556 18.1435 22.284C18.075 22.3123 17.9996 22.3198 17.9268 22.3053C17.8541 22.2908 17.7873 22.2551 17.7348 22.2027C17.6824 22.1502 17.6467 22.0834 17.6322 22.0107C17.6177 21.9379 17.6252 21.8625 17.6535 21.794C17.6819 21.7255 17.73 21.6669 17.7917 21.6257C17.8533 21.5845 17.9258 21.5625 18 21.5625C18.0994 21.5626 18.1947 21.6022 18.265 21.6725C18.3353 21.7428 18.3749 21.8381 18.375 21.9375Z" fill="#3754DB"/>
<path d="M28.5 17.4375C28.2033 17.4375 27.9133 17.5255 27.6666 17.6903C27.42 17.8551 27.2277 18.0894 27.1142 18.3635C27.0006 18.6376 26.9709 18.9392 27.0288 19.2301C27.0867 19.5211 27.2296 19.7884 27.4393 19.9982C27.6491 20.2079 27.9164 20.3508 28.2074 20.4087C28.4983 20.4666 28.7999 20.4369 29.074 20.3233C29.3481 20.2098 29.5824 20.0175 29.7472 19.7709C29.912 19.5242 30 19.2342 30 18.9375C29.9995 18.5398 29.8414 18.1585 29.5602 17.8773C29.279 17.5961 28.8977 17.438 28.5 17.4375ZM28.5 19.6875C28.3517 19.6875 28.2067 19.6435 28.0833 19.5611C27.96 19.4787 27.8639 19.3616 27.8071 19.2245C27.7503 19.0875 27.7355 18.9367 27.7644 18.7912C27.7934 18.6457 27.8648 18.5121 27.9697 18.4072C28.0746 18.3023 28.2082 18.2308 28.3537 18.2019C28.4992 18.173 28.65 18.1878 28.787 18.2446C28.9241 18.3014 29.0412 18.3975 29.1236 18.5208C29.206 18.6442 29.25 18.7892 29.25 18.9375C29.2498 19.1363 29.1707 19.327 29.0301 19.4676C28.8895 19.6082 28.6988 19.6873 28.5 19.6875Z" fill="#3754DB"/>
<path d="M30 20.8125C29.7775 20.8125 29.56 20.8785 29.375 21.0021C29.19 21.1257 29.0458 21.3014 28.9606 21.507C28.8755 21.7125 28.8532 21.9387 28.8966 22.157C28.94 22.3752 29.0472 22.5757 29.2045 22.733C29.3618 22.8903 29.5623 22.9975 29.7805 23.0409C29.9988 23.0843 30.225 23.062 30.4305 22.9769C30.6361 22.8917 30.8118 22.7475 30.9354 22.5625C31.059 22.3775 31.125 22.16 31.125 21.9375C31.1247 21.6392 31.006 21.3533 30.7951 21.1424C30.5842 20.9315 30.2983 20.8128 30 20.8125ZM30 22.3125C29.9258 22.3125 29.8533 22.2905 29.7917 22.2493C29.73 22.2081 29.6819 22.1495 29.6535 22.081C29.6252 22.0125 29.6177 21.9371 29.6322 21.8643C29.6467 21.7916 29.6824 21.7248 29.7348 21.6723C29.7873 21.6199 29.8541 21.5842 29.9268 21.5697C29.9996 21.5552 30.075 21.5627 30.1435 21.591C30.212 21.6194 30.2706 21.6675 30.3118 21.7292C30.353 21.7908 30.375 21.8633 30.375 21.9375C30.3749 22.0369 30.3353 22.1322 30.265 22.2025C30.1947 22.2728 30.0994 22.3124 30 22.3125Z" fill="#3754DB"/>
<path d="M24.5625 21.5625C24.662 21.5625 24.7573 21.523 24.8277 21.4527C24.898 21.3823 24.9375 21.287 24.9375 21.1875C24.9375 21.088 24.898 20.9927 24.8277 20.9223C24.7573 20.852 24.662 20.8125 24.5625 20.8125H23.4375C23.338 20.8125 23.2427 20.852 23.1723 20.9223C23.102 20.9927 23.0625 21.088 23.0625 21.1875C23.0625 21.287 23.102 21.3823 23.1723 21.4527C23.2427 21.523 23.338 21.5625 23.4375 21.5625H24.5625Z" fill="#3754DB"/>
<path d="M21.9543 24.2844C21.9331 24.3525 21.9318 24.4253 21.9505 24.4941C21.9692 24.563 22.0071 24.6251 22.0599 24.6731L22.7497 25.3015L22.5881 26.1823C22.5755 26.2506 22.5822 26.3211 22.6074 26.3858C22.6325 26.4506 22.6752 26.5071 22.7306 26.549C22.786 26.5909 22.852 26.6166 22.9211 26.6233C22.9903 26.6299 23.0599 26.6172 23.1223 26.5865L23.9999 26.1553L24.8775 26.5865C24.9399 26.6172 25.0095 26.6299 25.0787 26.6233C25.1478 26.6166 25.2138 26.5909 25.2692 26.549C25.3246 26.5071 25.3673 26.4506 25.3924 26.3858C25.4176 26.3211 25.4243 26.2506 25.4117 26.1823L25.25 25.3015L25.9399 24.6731C25.9927 24.6251 26.0306 24.563 26.0493 24.4941C26.068 24.4253 26.0667 24.3525 26.0455 24.2844C26.0243 24.2163 25.984 24.1556 25.9295 24.1095C25.8751 24.0635 25.8085 24.0339 25.7378 24.0243L24.7629 23.8918L24.3315 23.075C24.2997 23.0146 24.2519 22.9641 24.1935 22.9289C24.1351 22.8936 24.0681 22.875 23.9999 22.875C23.9317 22.875 23.8647 22.8936 23.8063 22.9289C23.7478 22.9641 23.7001 23.0146 23.6683 23.075L23.2369 23.8918L22.2619 24.0243C22.1913 24.0339 22.1248 24.0635 22.0703 24.1096C22.0158 24.1556 21.9756 24.2163 21.9543 24.2844Z" fill="#3754DB"/>
</g>
<defs>
<clipPath id="clip0_624_5984">
<rect width="24" height="24" fill="white" transform="translate(12 12)"/>
</clipPath>
</defs>
</svg>
