<svg width="142" height="24" viewBox="0 0 142 24" fill="none" xmlns="http://www.w3.org/2000/svg">
<path d="M24.165 11.8199V11.7699C24.165 11.6949 24.165 11.6199 24.165 11.5449C24.165 11.4699 24.165 11.4899 24.165 11.4599C24.165 11.4299 24.165 11.3299 24.165 11.2649C24.165 11.1999 24.165 11.0549 24.14 10.9499C24.115 10.8449 24.14 10.8099 24.14 10.7399V10.6399C24.14 10.5749 24.14 10.5149 24.14 10.4499C24.14 10.3849 24.14 10.4149 24.14 10.3949C24.14 10.3749 24.14 10.2499 24.105 10.1799V10.1499L24.06 9.90492V9.87492C24.06 9.80992 24.035 9.74492 24.025 9.67992C24.015 9.61492 24.025 9.67992 24.025 9.64992C24.025 9.61992 24.025 9.60992 24.025 9.58992C24.025 9.56992 23.99 9.43992 23.975 9.36492C23.975 9.27992 23.94 9.19992 23.92 9.11992L23.875 8.93992C23.875 8.90992 23.875 8.87992 23.85 8.85492L23.79 8.64992V8.59492C23.765 8.51992 23.745 8.44492 23.72 8.36992C23.695 8.29492 23.72 8.36992 23.72 8.36992C23.72 8.36992 23.66 8.20492 23.635 8.11992L23.545 7.87992C23.515 7.79992 23.485 7.71492 23.45 7.63492C23.415 7.55492 23.395 7.49992 23.365 7.42992C23.3572 7.40573 23.3471 7.3823 23.335 7.35992C23.31 7.29492 23.28 7.22492 23.25 7.15992C23.175 6.99992 23.1 6.83992 23.02 6.65992L22.9 6.42492L22.795 6.22992C22.745 6.14492 22.695 6.05492 22.64 5.96992C22.585 5.88492 22.565 5.83992 22.525 5.77492L22.495 5.72992C22.455 5.65992 22.41 5.59492 22.365 5.52492C22.366 5.51161 22.366 5.49824 22.365 5.48492L22.245 5.30992L22.12 5.12992L22.06 5.04492C21.985 4.93992 21.91 4.83492 21.83 4.73492L21.775 4.66492C21.625 4.47492 21.47 4.28992 21.31 4.10492L21.245 4.03492C20.9752 3.73513 20.6898 3.44973 20.39 3.17992L20.285 3.08492C20.14 2.94992 19.99 2.82492 19.835 2.69992L19.73 2.61992C19.615 2.52992 19.5 2.43992 19.38 2.35492L19.275 2.27992C19.155 2.18992 19.03 2.10492 18.905 2.02492L18.715 1.89992L18.525 1.78492L18.445 1.73492C18.155 1.56492 17.86 1.40492 17.555 1.23492L17.39 1.15492L17.285 1.10492L17.12 1.03492L17.035 0.994923L16.695 0.854921L16.59 0.814922L16.39 0.739922L16.185 0.669922L16.085 0.634922L15.765 0.534922L15.62 0.494923L15.38 0.424921L15.19 0.379921C14.97 0.324921 14.75 0.279922 14.53 0.239922L14.355 0.204922H14.325H14.145H14.005L13.74 0.169922H13.585H13.37H13.265H12.955H11.71H11.405H11.3H11.085H10.925L10.665 0.204922H10.52L10.31 0.234922L10.135 0.269922C9.91504 0.309922 9.69504 0.354922 9.48004 0.409922L9.29003 0.454922L9.04503 0.524921L8.90503 0.564922L8.58004 0.664923L8.48503 0.699923L8.27503 0.769922L8.07503 0.844921L7.97003 0.884922L7.63003 1.02492L7.54503 1.06492L7.38003 1.13492L7.28003 1.18492L7.11503 1.26492C6.81003 1.41492 6.51503 1.57492 6.22503 1.76492L6.14503 1.81492L5.95504 1.92992L5.77003 2.05492L5.39503 2.30992L5.29003 2.38492C5.17503 2.46992 5.05503 2.55992 4.94503 2.64992L4.83503 2.72992C4.68503 2.85492 4.53504 2.97992 4.38504 3.11492L4.28003 3.20992C3.87251 3.44887 3.48011 3.7127 3.10504 3.99992L3.04503 4.06992C2.88003 4.25492 2.72503 4.43992 2.58003 4.62992L2.52003 4.69992C2.44003 4.79992 2.36503 4.90492 2.29003 5.00992L2.23004 5.09492L2.10504 5.27492C2.06504 5.32992 2.02503 5.38992 1.99003 5.44992L1.96003 5.48992L1.83004 5.69492C1.81984 5.70881 1.81144 5.72393 1.80503 5.73992L1.68503 5.93492L1.53504 6.19492C1.50004 6.25992 1.46003 6.32492 1.43003 6.38992L1.30503 6.62492C1.22503 6.77992 1.15004 6.93992 1.08004 7.12492C1.08004 7.18992 1.02504 7.25992 0.995036 7.32492L0.96503 7.39492L0.880031 7.59992L0.785037 7.84492C0.755037 7.92492 0.72503 8.00492 0.70003 8.08492C0.67003 8.16992 0.640031 8.24992 0.615031 8.33492L0.540034 8.55992V8.61492L0.480037 8.81992C0.480037 8.81992 0.480037 8.87492 0.480037 8.90492C0.480037 8.93492 0.445034 9.02492 0.430034 9.08492L0.370036 9.32992C0.370036 9.40492 0.335033 9.47992 0.320033 9.55492V9.61492C0.320033 9.61492 0.320033 9.61492 0.320033 9.64492C0.320033 9.67492 0.320032 9.77492 0.280032 9.83992V9.86992C0.280032 9.94992 0.280031 10.0299 0.240031 10.1149C0.237692 10.1248 0.237692 10.1351 0.240031 10.1449C0.240031 10.2149 0.215032 10.2849 0.210032 10.3599C0.207678 10.3782 0.207678 10.3967 0.210032 10.4149C0.210032 10.4799 0.210031 10.5399 0.185031 10.6049C0.182806 10.6382 0.182806 10.6716 0.185031 10.7049C0.185031 10.7749 0.185037 10.8449 0.160037 10.9149C0.135037 10.9849 0.160037 11.1249 0.160037 11.2299C0.160037 11.3349 0.160037 11.3599 0.160037 11.4249C0.16245 11.4532 0.16245 11.4816 0.160037 11.5099C0.160037 11.5849 0.160037 11.6599 0.160037 11.7349V11.7849C0.160037 11.8699 0.160037 11.9599 0.160037 12.0499C0.160037 12.1399 0.160037 12.2549 0.160037 12.3599V12.5149C0.160037 12.5799 0.160037 12.6449 0.160037 12.7149C0.160037 12.7849 0.160037 12.8149 0.160037 12.8649C0.160037 12.9149 0.160037 12.9399 0.160037 12.9799C0.160037 13.0199 0.160037 13.0449 0.160037 13.0799C0.157567 13.1149 0.157567 13.15 0.160037 13.1849V13.3449C0.160037 13.3799 0.160037 13.4149 0.160037 13.4449V13.5849C0.160037 13.6399 0.160031 13.6899 0.185031 13.7399C0.210031 13.7899 0.185034 13.9049 0.220034 13.9849C0.255034 14.0649 0.220036 14.0899 0.245036 14.1399L0.275035 14.2949C0.277476 14.3199 0.277476 14.345 0.275035 14.3699C0.275035 14.4499 0.31003 14.5249 0.32503 14.6049C0.36003 14.7599 0.395031 14.9149 0.435031 15.0699L0.555034 15.4999C0.712518 16.0277 0.906315 16.5439 1.13504 17.0449C1.14962 17.0825 1.16631 17.1192 1.18503 17.1549C1.24503 17.2799 1.30504 17.4099 1.37004 17.5349L1.51004 17.8049C1.6367 18.0283 1.7667 18.2483 1.90003 18.4649L1.98004 18.5949C2.50737 19.4081 3.12827 20.1565 3.83003 20.8249L3.94503 20.9249L4.01004 20.9799L4.19503 21.1499C5.07379 21.8963 6.14779 22.3755 7.29018 22.5311C8.43257 22.6866 9.59561 22.5119 10.6419 22.0277C11.6882 21.5434 12.5741 20.7699 13.1948 19.7983C13.8156 18.8268 14.1453 17.6978 14.145 16.5449V12.9499H12.145C11.6146 12.9499 11.1059 13.1606 10.7308 13.5357C10.3557 13.9108 10.145 14.4195 10.145 14.9499V16.5299C10.1506 17.0625 9.94759 17.5761 9.57949 17.9611C9.21138 18.346 8.70733 18.5717 8.17504 18.5899C7.70104 18.601 7.23854 18.4432 6.87004 18.1449C6.8276 18.1128 6.7875 18.0777 6.75003 18.0399L6.71503 18.0049C5.89294 17.2528 5.23702 16.3373 4.78929 15.317C4.34157 14.2967 4.11191 13.1941 4.11503 12.0799V12.0799C4.11509 10.6285 4.50731 9.20413 5.25021 7.95728C5.99311 6.71044 7.05909 5.68748 8.33547 4.99655C9.61184 4.30562 11.0512 3.97239 12.5013 4.03209C13.9515 4.09179 15.3586 4.5422 16.5739 5.3357C17.7891 6.1292 18.7674 7.23631 19.4053 8.54C20.0432 9.84369 20.317 11.2955 20.1978 12.742C20.0786 14.1885 19.5707 15.5759 18.728 16.7575C17.8852 17.9391 16.7388 18.8711 15.41 19.4549C15.0443 19.6075 14.7321 19.8652 14.5132 20.1955C14.2942 20.5258 14.1782 20.9137 14.18 21.3099V23.9999C15.1347 23.8395 16.0665 23.5642 16.955 23.1799H17.005L17.205 23.0899L17.405 22.9949L17.61 22.8949L17.79 22.7999L17.935 22.7249L18.045 22.6649L18.26 22.5449C18.4 22.4649 18.535 22.3799 18.675 22.2899L18.785 22.2199C18.985 22.0849 19.185 21.9449 19.375 21.7999L19.495 21.7149L19.835 21.4399C19.91 21.3799 19.985 21.3199 20.055 21.2549L20.165 21.1599L20.38 20.9649L20.485 20.8649L20.59 20.7649L20.795 20.5599C20.895 20.4549 20.995 20.3499 21.09 20.2399L21.19 20.1349L21.285 20.0249L21.38 19.9149L21.47 19.8049C21.565 19.6949 21.655 19.5799 21.74 19.4649C21.825 19.3499 21.86 19.3099 21.915 19.2299C21.97 19.1499 21.975 19.1549 22 19.1149L22.17 18.8749C22.17 18.8349 22.22 18.7949 22.25 18.7549C22.28 18.7149 22.355 18.5899 22.405 18.5099L22.48 18.3849C22.535 18.2999 22.58 18.2149 22.63 18.1349L22.7 18.0099L22.84 17.7499L22.9 17.6399L22.975 17.4899L23.065 17.3049L23.155 17.1099C23.155 17.0599 23.2 17.0099 23.225 16.9549C23.25 16.8999 23.265 16.8649 23.28 16.8199L23.34 16.6849L23.415 16.4899C23.44 16.4299 23.465 16.3649 23.485 16.3049C23.505 16.2449 23.54 16.1599 23.565 16.0849C23.59 16.0099 23.61 15.9549 23.63 15.8849C23.65 15.8149 23.68 15.7449 23.7 15.6749L23.76 15.4649C23.76 15.4049 23.795 15.3499 23.81 15.2949C23.825 15.2399 23.81 15.2349 23.81 15.2049C23.8193 15.1593 23.831 15.1143 23.845 15.0699C23.845 14.9749 23.89 14.8849 23.91 14.7899C23.93 14.6949 23.91 14.6849 23.945 14.6349C23.98 14.5849 23.98 14.4649 23.995 14.3849C24.01 14.3049 24.02 14.2349 24.035 14.1599L24.065 13.9849C24.065 13.9349 24.065 13.8899 24.065 13.8449C24.065 13.7949 24.065 13.7449 24.065 13.6949C24.065 13.6449 24.065 13.5799 24.065 13.5199C24.065 13.4599 24.065 13.3799 24.065 13.3049V13.0899C24.065 13.0899 24.065 13.0899 24.065 13.0599C24.065 13.0299 24.065 12.9399 24.065 12.8799C24.065 12.8199 24.065 12.8149 24.065 12.7849C24.065 12.7549 24.065 12.6749 24.065 12.6199C24.065 12.5649 24.065 12.4649 24.065 12.3899V11.8899L24.165 11.8199Z" fill="white"/>
<path d="M11.7801 6.58496C12.0841 6.58496 12.3851 6.64484 12.666 6.76118C12.9469 6.87752 13.2021 7.04804 13.417 7.26301C13.632 7.47798 13.8025 7.73318 13.9189 8.01405C14.0352 8.29492 14.0951 8.59595 14.0951 8.89996V11.215H11.7801C11.1661 11.215 10.5773 10.9711 10.1431 10.5369C9.709 10.1028 9.46509 9.51394 9.46509 8.89996C9.46509 8.59595 9.52497 8.29492 9.64131 8.01405C9.75765 7.73318 9.92818 7.47798 10.1431 7.26301C10.3581 7.04804 10.6133 6.87752 10.8942 6.76118C11.175 6.64484 11.4761 6.58496 11.7801 6.58496Z" fill="white"/>
<path d="M36.0801 12.2448L34.5451 12.0348C34.1322 12.0084 33.7368 11.8586 33.4101 11.6048C33.3051 11.4919 33.2243 11.3587 33.1727 11.2134C33.1211 11.068 33.0998 10.9137 33.1101 10.7598C33.1062 10.5974 33.142 10.4365 33.2143 10.291C33.2866 10.1455 33.3933 10.0198 33.5251 9.92484C33.9533 9.68223 34.4446 9.57421 34.9351 9.61484C35.5157 9.61643 36.0889 9.7444 36.6151 9.98984C37.1721 10.2417 37.68 10.5904 38.1151 11.0198L40.3301 8.74984C39.9801 8.42484 39.6301 8.12484 39.2751 7.85484C38.9113 7.58303 38.517 7.35481 38.1001 7.17484C37.6307 6.98173 37.1409 6.8425 36.6401 6.75984C36.0154 6.65768 35.3831 6.60917 34.7501 6.61484C34.0041 6.60524 33.2614 6.71496 32.5501 6.93984C31.9406 7.13662 31.374 7.4471 30.8801 7.85484C30.425 8.23813 30.0612 8.71812 29.8151 9.25984C29.5567 9.82959 29.4269 10.4493 29.4351 11.0748C29.4351 13.5048 30.9734 14.9115 34.0501 15.2948L35.5501 15.4798C36.4701 15.5998 36.9301 15.9798 36.9301 16.6248C36.9366 16.8071 36.8996 16.9884 36.8222 17.1535C36.7448 17.3187 36.6293 17.4631 36.4851 17.5748C36.0074 17.8574 35.4526 17.9817 34.9001 17.9298C34.2051 17.9387 33.5184 17.7773 32.9001 17.4598C32.2909 17.1311 31.7442 16.6979 31.2851 16.1798L28.9651 18.4998C29.6775 19.3171 30.5659 19.9622 31.5636 20.3866C32.5613 20.8109 33.6422 21.0035 34.7251 20.9498C35.541 20.9595 36.3537 20.8448 37.1351 20.6098C37.8063 20.4131 38.4341 20.0908 38.9851 19.6598C39.4826 19.2709 39.8888 18.7777 40.1751 18.2148C40.4531 17.6469 40.5952 17.0221 40.5901 16.3898C40.5901 14.0298 39.0868 12.6482 36.0801 12.2448Z" fill="white"/>
<path d="M54.3551 14.7502V13.6002C54.3577 12.7065 54.2383 11.8167 54.0001 10.9552C53.7836 10.143 53.4024 9.38392 52.8801 8.72525C52.3427 8.06416 51.6577 7.5384 50.8801 7.19025C49.9746 6.78763 48.9909 6.59123 48.0001 6.61525C47.0624 6.59546 46.1304 6.76553 45.2601 7.11525C44.4926 7.43923 43.8087 7.93333 43.2601 8.56025C42.6863 9.21882 42.2571 9.99044 42.0001 10.8252C41.4336 12.7528 41.4336 14.8027 42.0001 16.7302C42.262 17.5708 42.702 18.3451 43.2901 19.0002C43.8658 19.6243 44.5728 20.1127 45.3601 20.4302C46.248 20.7795 47.1962 20.9494 48.1501 20.9302C49.2951 20.9492 50.4329 20.7455 51.5001 20.3302C52.4188 19.9728 53.2371 19.3981 53.8851 18.6552L51.9551 16.2502C51.5357 16.6897 51.0638 17.076 50.5501 17.4002C49.9595 17.7501 49.2811 17.9236 48.5951 17.9002C48.1785 17.9376 47.7587 17.8865 47.3632 17.7504C46.9677 17.6142 46.6055 17.3961 46.3001 17.1102C45.7895 16.522 45.5277 15.7581 45.5701 14.9802V14.7502H54.3551ZM45.5701 12.2502C45.5352 11.5103 45.7717 10.7831 46.2351 10.2052C46.4639 9.94644 46.7482 9.74274 47.0669 9.60939C47.3855 9.47604 47.7302 9.41651 48.0751 9.43525C48.4046 9.41069 48.7351 9.46816 49.037 9.60253C49.3389 9.7369 49.6028 9.94397 49.8051 10.2052C50.1993 10.7956 50.3954 11.496 50.3651 12.2052V12.5002H45.5701V12.2502Z" fill="white"/>
<path d="M80.37 8.39526V17.0903C80.371 18.1753 79.98 19.2242 79.2688 20.0438C78.5577 20.8633 77.5744 21.3983 76.5 21.5503C76.285 21.5846 76.0677 21.6013 75.85 21.6003C75.6307 21.6012 75.4116 21.5845 75.195 21.5503C74.1233 21.3951 73.1436 20.8586 72.4355 20.0394C71.7274 19.2202 71.3384 18.1731 71.34 17.0903V12.3503C71.34 10.6136 70.715 9.74526 69.465 9.74526C68.9036 9.74261 68.3558 9.91763 67.9 10.2453C67.6656 10.4157 67.4781 10.6425 67.3549 10.9047C67.2316 11.167 67.1766 11.4561 67.195 11.7453V20.6103H63.35V12.3503C63.35 10.6153 62.72 9.74526 61.47 9.74526C61.1925 9.74347 60.9163 9.78221 60.65 9.86026C60.3838 9.93704 60.1356 10.0662 59.92 10.2403C59.7118 10.4157 59.5417 10.6318 59.42 10.8753C59.2859 11.1471 59.2191 11.4472 59.225 11.7503V20.6103H55.365V9.11026C55.365 8.53209 55.5947 7.97759 56.0035 7.56877C56.4123 7.15994 56.9668 6.93026 57.545 6.93026H59.225V9.25026H59.38C59.6202 8.5269 60.0522 7.88231 60.63 7.38526C61.3161 6.83906 62.1795 6.56492 63.055 6.61526C63.9094 6.59044 64.7497 6.83727 65.455 7.32026C66.1444 7.83182 66.6467 8.55553 66.885 9.38026H66.965C67.2258 8.57577 67.7555 7.88549 68.465 7.42526C68.844 7.17396 69.2563 6.97705 69.69 6.84026C70.1614 6.68718 70.6544 6.6112 71.15 6.61526C71.7247 6.58687 72.2977 6.69802 72.8201 6.9392C73.3425 7.18038 73.7988 7.54443 74.15 8.00026C74.8622 9.06731 75.2288 10.3277 75.2 11.6103C75.2 11.7453 75.2 11.8803 75.2 12.0153V17.0903C75.2006 17.1787 75.2189 17.266 75.254 17.3472C75.289 17.4284 75.3399 17.5017 75.4038 17.5627C75.4677 17.6238 75.5432 17.6715 75.6259 17.7028C75.7086 17.7342 75.7966 17.7486 75.885 17.7453C76.0556 17.7289 76.2137 17.6487 76.3277 17.5208C76.4418 17.3929 76.5033 17.2266 76.5 17.0553V10.5553C76.5 9.97709 76.7297 9.42259 77.1385 9.01376C77.5473 8.60494 78.1018 8.37526 78.68 8.37526L80.37 8.39526Z" fill="white"/>
<path d="M90.6151 15.8149C90.4365 16.3524 90.1469 16.8465 89.7651 17.2649C89.5402 17.4814 89.272 17.6478 88.9781 17.753C88.6841 17.8581 88.3712 17.8997 88.0601 17.8749C87.7247 17.8976 87.3887 17.84 87.0801 17.707C86.7714 17.574 86.4988 17.3693 86.2851 17.1099C85.859 16.5086 85.6493 15.7807 85.6901 15.0449V12.4999C85.6493 11.7641 85.859 11.0362 86.2851 10.4349C86.4988 10.1755 86.7714 9.97079 87.0801 9.83775C87.3887 9.70471 87.7247 9.64716 88.0601 9.66987C88.6411 9.63558 89.2122 9.83136 89.65 10.2149C90.0277 10.5738 90.2904 11.0366 90.4051 11.5449L93.5351 10.1899C93.1737 9.11822 92.4712 8.19444 91.5351 7.55987C90.4904 6.8995 89.27 6.57172 88.0351 6.61987C87.0993 6.60453 86.1698 6.77446 85.3001 7.11987C84.5295 7.43362 83.8441 7.92536 83.3001 8.55487C82.743 9.21565 82.3262 9.98288 82.0751 10.8099C81.7848 11.7675 81.6448 12.7643 81.6601 13.7649C81.6456 14.7719 81.7856 15.7752 82.0751 16.7399C82.3267 17.5712 82.749 18.341 83.3151 18.9999C83.8635 19.6233 84.5477 20.1125 85.3151 20.4299C86.1834 20.7801 87.1139 20.9502 88.0501 20.9299C89.2663 20.9643 90.4659 20.6409 91.5001 19.9999C92.5063 19.3046 93.2453 18.2869 93.5951 17.1149L90.6151 15.8149Z" fill="white"/>
<path d="M107 10.7851C106.732 9.95681 106.302 9.19021 105.735 8.53006C105.184 7.9113 104.501 7.42574 103.735 7.11006C101.997 6.45029 100.078 6.45029 98.3399 7.11006C97.5739 7.42512 96.8899 7.91078 96.3399 8.53006C95.769 9.18767 95.3385 9.95505 95.0749 10.7851C94.4815 12.7223 94.4815 14.7928 95.0749 16.7301C95.3305 17.5618 95.7505 18.3337 96.3099 19.0001C96.8565 19.6268 97.5411 20.118 98.3099 20.4351C100.048 21.0948 101.967 21.0948 103.705 20.4351C104.473 20.1176 105.158 19.6264 105.705 19.0001C106.283 18.3366 106.723 17.565 107 16.7301C107.587 14.7918 107.587 12.7233 107 10.7851V10.7851ZM103.425 15.1651C103.472 15.8854 103.251 16.5977 102.805 17.1651C102.325 17.6183 101.69 17.8708 101.03 17.8708C100.37 17.8708 99.7348 17.6183 99.2549 17.1651C98.8067 16.5985 98.5841 15.886 98.6299 15.1651V12.3751C98.5841 11.6541 98.8067 10.9417 99.2549 10.3751C99.7348 9.92182 100.37 9.66931 101.03 9.66931C101.69 9.66931 102.325 9.92182 102.805 10.3751C103.251 10.9424 103.472 11.6547 103.425 12.3751V15.1651Z" fill="white"/>
<path d="M112.67 16.6054V2.40039H108.815V16.8604C108.747 17.8756 109.079 18.8772 109.74 19.6504C110.353 20.2904 111.322 20.6104 112.645 20.6104H115.315V17.6104H113.685C113.552 17.6124 113.42 17.5878 113.297 17.5382C113.173 17.4885 113.061 17.4147 112.966 17.3211C112.872 17.2275 112.797 17.116 112.746 16.9931C112.695 16.8702 112.669 16.7384 112.67 16.6054Z" fill="white"/>
<path d="M128.285 10.7851C128.021 9.95623 127.593 9.18923 127.025 8.53006C126.474 7.91221 125.79 7.42681 125.025 7.11006C123.287 6.45029 121.368 6.45029 119.63 7.11006C118.864 7.42512 118.18 7.91078 117.63 8.53006C117.059 9.18767 116.629 9.95505 116.365 10.7851C115.778 12.7233 115.778 14.7918 116.365 16.7301C116.625 17.563 117.05 18.335 117.615 19.0001C118.162 19.6268 118.846 20.118 119.615 20.4351C121.353 21.0948 123.272 21.0948 125.01 20.4351C125.778 20.1161 126.462 19.6252 127.01 19.0001C127.577 18.3365 128.005 17.5665 128.27 16.7351C128.863 14.7978 128.863 12.7273 128.27 10.7901L128.285 10.7851ZM124.715 15.1651C124.763 15.8863 124.54 16.5994 124.09 17.1651C123.611 17.618 122.977 17.8703 122.318 17.8703C121.658 17.8703 121.024 17.618 120.545 17.1651C120.097 16.5985 119.874 15.886 119.92 15.1651V12.3751C119.874 11.6541 120.097 10.9417 120.545 10.3751C121.024 9.92215 121.658 9.6698 122.318 9.6698C122.977 9.6698 123.611 9.92215 124.09 10.3751C124.54 10.9408 124.763 11.6539 124.715 12.3751V15.1651Z" fill="white"/>
<path d="M140.735 7.99988C140.354 7.52648 139.865 7.15167 139.309 6.90713C138.753 6.66258 138.146 6.55548 137.54 6.59488C136.623 6.54182 135.719 6.8284 135 7.39988C134.412 7.88799 133.97 8.52783 133.72 9.24988H133.565V6.92988H131.89C131.312 6.92988 130.757 7.15956 130.348 7.56839C129.94 7.97722 129.71 8.53171 129.71 9.10988V20.6099H133.565V11.7499C133.559 11.4451 133.631 11.1438 133.775 10.8749C133.914 10.6257 134.105 10.4092 134.335 10.2399C134.574 10.064 134.843 9.93506 135.13 9.85988C135.427 9.78139 135.733 9.74272 136.04 9.74488C136.324 9.70992 136.613 9.7507 136.876 9.86309C137.139 9.97548 137.368 10.1555 137.54 10.3849C137.863 10.9871 138.008 11.6684 137.96 12.3499V20.6099H141.815V12.0349C141.815 10.3016 141.455 8.95655 140.735 7.99988Z" fill="white"/>
<path d="M80.37 6.76539H78.185C77.8981 6.76539 77.6139 6.70887 77.3488 6.59907C77.0837 6.48926 76.8429 6.32832 76.64 6.12542C76.4371 5.92252 76.2761 5.68165 76.1663 5.41655C76.0565 5.15146 76 4.86733 76 4.58039V4.58039C76 4.00222 76.2297 3.44773 76.6385 3.0389C77.0473 2.63007 77.6018 2.40039 78.18 2.40039C78.7586 2.40039 79.3136 2.62991 79.7233 3.03859C80.1329 3.44728 80.3637 4.00176 80.365 4.58039L80.37 6.76539Z" fill="white"/>
</svg>
