<svg width="86" height="86" viewBox="0 0 86 86" fill="none" xmlns="http://www.w3.org/2000/svg">
<rect width="86" height="86" rx="20" fill="#00C271"/>
<path d="M59.6668 41.4666V42.9999C59.6648 46.594 58.501 50.0911 56.3491 52.9696C54.1971 55.8482 51.1723 57.9541 47.7258 58.9731C44.2792 59.9921 40.5956 59.8698 37.2243 58.6242C33.853 57.3787 30.9746 55.0768 29.0184 52.0617C27.0623 49.0467 26.1331 45.48 26.3696 41.8938C26.6061 38.3075 27.9955 34.8938 30.3306 32.1617C32.6658 29.4296 35.8215 27.5256 39.3271 26.7335C42.8328 25.9415 46.5006 26.3038 49.7835 27.7666" stroke="white" stroke-width="2.5" stroke-linecap="round" stroke-linejoin="round"/>
<path d="M59.9445 28.8335L43.2778 45.5168L38.2778 40.5168" stroke="white" stroke-width="2.5" stroke-linecap="round" stroke-linejoin="round"/>
</svg>
