<svg width="115" height="21" viewBox="0 0 115 21" fill="none" xmlns="http://www.w3.org/2000/svg">
<path d="M9.73185 2.5957L1.62198 6.65064L9.73185 10.7056L17.8417 6.65064L9.73185 2.5957Z" stroke="white" stroke-width="1.5" stroke-linecap="round" stroke-linejoin="round"/>
<path d="M1.62198 14.7607L9.73185 18.8157L17.8417 14.7607" stroke="white" stroke-width="1.5" stroke-linecap="round" stroke-linejoin="round"/>
<path d="M1.62198 10.7051L9.73185 14.76L17.8417 10.7051" stroke="white" stroke-width="1.5" stroke-linecap="round" stroke-linejoin="round"/>
<path d="M33.2127 5.74787V8.07025H25.0941V5.74787H33.2127ZM27.2713 2.1869H30.1646V16.2469C30.1646 16.8082 30.2484 17.2307 30.4162 17.5146C30.5839 17.792 30.8 17.9823 31.0645 18.0855C31.3354 18.1822 31.629 18.2306 31.9451 18.2306C32.1773 18.2306 32.3805 18.2145 32.5547 18.1822C32.7289 18.15 32.8643 18.1242 32.9611 18.1048L33.4836 20.4949C33.3159 20.5595 33.0772 20.624 32.7676 20.6885C32.4579 20.7594 32.0709 20.7981 31.6064 20.8046C30.8452 20.8175 30.1355 20.682 29.4775 20.3982C28.8195 20.1143 28.2873 19.6757 27.8809 19.0822C27.4745 18.4887 27.2713 17.7436 27.2713 16.8469V2.1869Z" fill="white"/>
<path d="M37.2307 20.6111V5.74787H40.0272V8.10895H40.182C40.453 7.30902 40.9303 6.68005 41.6142 6.22202C42.3044 5.75755 43.085 5.52531 43.9559 5.52531C44.1365 5.52531 44.3494 5.53176 44.5945 5.54467C44.8461 5.55757 45.0429 5.57369 45.1848 5.59305V8.36054C45.0687 8.32829 44.8623 8.29281 44.5655 8.2541C44.2688 8.20894 43.972 8.18637 43.6753 8.18637C42.9915 8.18637 42.3818 8.33151 41.8464 8.62181C41.3174 8.90566 40.8981 9.30239 40.5884 9.81203C40.2788 10.3152 40.124 10.8893 40.124 11.5345V20.6111H37.2307Z" fill="white"/>
<path d="M52.6985 20.9401C51.7566 20.9401 50.9051 20.7659 50.1438 20.4175C49.3826 20.0627 48.7795 19.5499 48.3343 18.879C47.8957 18.2081 47.6763 17.3855 47.6763 16.4114C47.6763 15.5728 47.8376 14.8825 48.1602 14.3407C48.4827 13.7988 48.9181 13.3698 49.4665 13.0537C50.0148 12.7376 50.6277 12.4989 51.305 12.3376C51.9824 12.1763 52.6727 12.0538 53.3758 11.9699C54.2661 11.8667 54.9886 11.7828 55.5434 11.7183C56.0982 11.6473 56.5013 11.5345 56.7529 11.3796C57.0045 11.2248 57.1303 10.9732 57.1303 10.6249V10.5571C57.1303 9.71204 56.8916 9.05725 56.4143 8.59278C55.9433 8.12831 55.2402 7.89607 54.3048 7.89607C53.3307 7.89607 52.563 8.11218 52.0017 8.5444C51.447 8.97017 51.0631 9.44432 50.8502 9.96685L48.1311 9.34755C48.4537 8.44441 48.9246 7.71544 49.5439 7.16065C50.1697 6.59941 50.8889 6.19299 51.7018 5.9414C52.5146 5.68336 53.3694 5.55434 54.2661 5.55434C54.8596 5.55434 55.4885 5.6253 56.153 5.76723C56.8239 5.9027 57.4496 6.15429 58.0302 6.522C58.6173 6.88971 59.0979 7.41547 59.472 8.09928C59.8462 8.77664 60.0333 9.6572 60.0333 10.741V20.6111H57.2077V18.579H57.0916C56.9045 18.9531 56.6239 19.3209 56.2498 19.6821C55.8756 20.0434 55.395 20.3433 54.8079 20.582C54.2209 20.8207 53.5177 20.9401 52.6985 20.9401ZM53.3274 18.6177C54.1274 18.6177 54.8112 18.4596 55.3789 18.1435C55.953 17.8274 56.3885 17.4146 56.6852 16.9049C56.9884 16.3889 57.14 15.8373 57.14 15.2503V13.3343C57.0368 13.4375 56.8368 13.5343 56.5401 13.6246C56.2498 13.7085 55.9175 13.7826 55.5434 13.8471C55.1692 13.9052 54.8047 13.96 54.4499 14.0117C54.0951 14.0568 53.7984 14.0955 53.5597 14.1278C52.9984 14.1987 52.4856 14.3181 52.0211 14.4858C51.5631 14.6535 51.1954 14.8954 50.918 15.2115C50.647 15.5212 50.5116 15.9341 50.5116 16.4501C50.5116 17.1662 50.7761 17.7081 51.305 18.0758C51.834 18.4371 52.5082 18.6177 53.3274 18.6177Z" fill="white"/>
<path d="M64.7045 20.6111V5.74787H67.5977V20.6111H64.7045ZM66.1656 3.45453C65.6624 3.45453 65.2302 3.2868 64.869 2.95135C64.5141 2.60944 64.3367 2.20303 64.3367 1.7321C64.3367 1.25473 64.5141 0.848311 64.869 0.512857C65.2302 0.170952 65.6624 0 66.1656 0C66.6688 0 67.0978 0.170952 67.4526 0.512857C67.8139 0.848311 67.9945 1.25473 67.9945 1.7321C67.9945 2.20303 67.8139 2.60944 67.4526 2.95135C67.0978 3.2868 66.6688 3.45453 66.1656 3.45453Z" fill="white"/>
<path d="M75.2009 0.793477V20.6111H72.3076V0.793477H75.2009Z" fill="white"/>
<path d="M79.9108 20.6111V5.74787H82.8041V20.6111H79.9108ZM81.3719 3.45453C80.8687 3.45453 80.4365 3.2868 80.0753 2.95135C79.7205 2.60944 79.5431 2.20303 79.5431 1.7321C79.5431 1.25473 79.7205 0.848311 80.0753 0.512857C80.4365 0.170952 80.8687 0 81.3719 0C81.8751 0 82.3041 0.170952 82.6589 0.512857C83.0202 0.848311 83.2008 1.25473 83.2008 1.7321C83.2008 2.20303 83.0202 2.60944 82.6589 2.95135C82.3041 3.2868 81.8751 3.45453 81.3719 3.45453Z" fill="white"/>
<path d="M100.229 5.74787L94.8391 20.6111H91.7426L86.3431 5.74787H89.4492L93.2134 17.1856H93.3682L97.1227 5.74787H100.229Z" fill="white"/>
<path d="M107.665 20.9401C106.723 20.9401 105.872 20.7659 105.111 20.4175C104.349 20.0627 103.746 19.5499 103.301 18.879C102.862 18.2081 102.643 17.3855 102.643 16.4114C102.643 15.5728 102.804 14.8825 103.127 14.3407C103.449 13.7988 103.885 13.3698 104.433 13.0537C104.982 12.7376 105.594 12.4989 106.272 12.3376C106.949 12.1763 107.639 12.0538 108.343 11.9699C109.233 11.8667 109.955 11.7828 110.51 11.7183C111.065 11.6473 111.468 11.5345 111.72 11.3796C111.971 11.2248 112.097 10.9732 112.097 10.6249V10.5571C112.097 9.71204 111.858 9.05725 111.381 8.59278C110.91 8.12831 110.207 7.89607 109.271 7.89607C108.297 7.89607 107.53 8.11218 106.968 8.5444C106.414 8.97017 106.03 9.44432 105.817 9.96685L103.098 9.34755C103.42 8.44441 103.891 7.71544 104.511 7.16065C105.136 6.59941 105.856 6.19299 106.668 5.9414C107.481 5.68336 108.336 5.55434 109.233 5.55434C109.826 5.55434 110.455 5.6253 111.12 5.76723C111.791 5.9027 112.416 6.15429 112.997 6.522C113.584 6.88971 114.065 7.41547 114.439 8.09928C114.813 8.77664 115 9.6572 115 10.741V20.6111H112.174V18.579H112.058C111.871 18.9531 111.591 19.3209 111.216 19.6821C110.842 20.0434 110.362 20.3433 109.775 20.582C109.188 20.8207 108.484 20.9401 107.665 20.9401ZM108.294 18.6177C109.094 18.6177 109.778 18.4596 110.346 18.1435C110.92 17.8274 111.355 17.4146 111.652 16.9049C111.955 16.3889 112.107 15.8373 112.107 15.2503V13.3343C112.003 13.4375 111.803 13.5343 111.507 13.6246C111.216 13.7085 110.884 13.7826 110.51 13.8471C110.136 13.9052 109.771 13.96 109.417 14.0117C109.062 14.0568 108.765 14.0955 108.526 14.1278C107.965 14.1987 107.452 14.3181 106.988 14.4858C106.53 14.6535 106.162 14.8954 105.885 15.2115C105.614 15.5212 105.478 15.9341 105.478 16.4501C105.478 17.1662 105.743 17.7081 106.272 18.0758C106.801 18.4371 107.475 18.6177 108.294 18.6177Z" fill="white"/>
</svg>
