<svg width="36" height="36" viewBox="0 0 36 36" fill="none" xmlns="http://www.w3.org/2000/svg">
<rect width="36" height="36" rx="12" fill="white" fill-opacity="0.25"/>
<path d="M21.8704 7.91353C22.5513 8.18456 23.0328 8.67307 23.4644 9.38925L23.6066 9.63642L24.1342 10.6481L24.1516 10.6763L24.1673 10.7009L24.2121 10.7622C24.4525 11.0241 24.8548 11.1823 25.1203 11.1823C27.5526 11.1823 29.5391 13.0925 29.6609 15.4938L29.6668 15.7277V22.4885C29.6668 25.6058 27.205 28.1497 24.12 28.2815L23.8685 28.2868H12.1318C9.01372 28.2868 6.47055 25.8253 6.33885 22.74L6.3335 22.4885V15.7277C6.3335 13.2177 8.3693 11.1823 10.88 11.1823C11.1446 11.1823 11.5474 11.0239 11.7882 10.7622L11.7965 10.7524L11.8069 10.7388L11.8668 10.6468L12.393 9.63674C12.8619 8.78446 13.372 8.21472 14.129 7.91342C15.5162 7.36185 20.4843 7.36185 21.8704 7.91353ZM14.7759 9.53948C14.5176 9.64228 14.2838 9.88024 14.0342 10.2928L13.9262 10.4804L13.4772 11.3485L13.3667 11.5485C13.2744 11.7019 13.1821 11.8315 13.0768 11.9463C12.5396 12.5301 11.7684 12.8674 11.0828 12.9238L10.88 12.9323L10.6886 12.9388C9.2968 13.0329 8.18408 14.1454 8.08995 15.5363L8.0835 15.7277V22.4885C8.0835 24.6495 9.77719 26.4155 11.9097 26.5308L12.1318 26.5368H23.8685C26.0291 26.5368 27.7955 24.8425 27.9108 22.7106L27.9168 22.4885V15.7277C27.9168 14.2486 26.7668 13.0372 25.3118 12.9388L25.1203 12.9323L24.9172 12.9238C24.2306 12.8673 23.4593 12.53 22.9228 11.9455C22.8189 11.8322 22.7271 11.7036 22.6354 11.5514L22.6133 11.5137L22.5871 11.4669L22.4516 11.2128L22.0738 10.4807C21.8186 10.0174 21.5849 9.73425 21.3326 9.59195L21.2233 9.53948L21.084 9.4932C19.8834 9.15383 15.707 9.16926 14.7759 9.53948ZM17.9998 14.7322C20.5317 14.7322 22.5836 16.7841 22.5836 19.316C22.5836 21.8479 20.5317 23.8998 17.9998 23.8998C15.4679 23.8998 13.416 21.8479 13.416 19.316C13.416 16.7841 15.4679 14.7322 17.9998 14.7322ZM17.9998 16.4822C16.4344 16.4822 15.166 17.7506 15.166 19.316C15.166 20.8814 16.4344 22.1498 17.9998 22.1498C19.5652 22.1498 20.8336 20.8814 20.8336 19.316C20.8336 17.7506 19.5652 16.4822 17.9998 16.4822ZM24.4218 13.9167C25.0662 13.9167 25.5885 14.439 25.5885 15.0833C25.5885 15.6816 25.1381 16.1747 24.5579 16.2421L24.4218 16.25C23.767 16.25 23.2447 15.7277 23.2447 15.0833C23.2447 14.485 23.6951 13.9919 24.2753 13.9245L24.4218 13.9167Z" fill="white"/>
</svg>
