<svg width="109" height="106" viewBox="0 0 109 106" fill="none" xmlns="http://www.w3.org/2000/svg">
<rect x="4" y="12" width="90" height="90" rx="16" fill="#16171D" stroke="#FEEDE1" stroke-width="8"/>
<g filter="url(#filter0_d_750_9696)">
<path d="M49 64.9348C59.8466 64.9348 69 66.6974 69 73.4974C69 80.3 59.7865 82 49 82C38.1559 82 29 80.2375 29 73.4374C29 66.6349 38.2135 64.9348 49 64.9348ZM49 32C56.3478 32 62.235 37.8851 62.235 45.2276C62.235 52.5702 56.3478 58.4578 49 58.4578C41.6547 58.4578 35.765 52.5702 35.765 45.2276C35.765 37.8851 41.6547 32 49 32Z" fill="white" fill-opacity="0.3"/>
</g>
<circle cx="86.5" cy="23.25" r="21.5" fill="#FB8937" stroke="white" stroke-width="2"/>
<path d="M86.5 34.5C92.7132 34.5 97.75 29.4632 97.75 23.25C97.75 17.0368 92.7132 12 86.5 12C80.2868 12 75.25 17.0368 75.25 23.25C75.25 29.4632 80.2868 34.5 86.5 34.5Z" stroke="white" stroke-width="2" stroke-linecap="round" stroke-linejoin="round"/>
<path d="M86.5 18.75V23.25" stroke="white" stroke-width="2" stroke-linecap="round" stroke-linejoin="round"/>
<path d="M86.5 27.75H86.5125" stroke="white" stroke-width="2" stroke-linecap="round" stroke-linejoin="round"/>
<defs>
<filter id="filter0_d_750_9696" x="15" y="27" width="68" height="68" filterUnits="userSpaceOnUse" color-interpolation-filters="sRGB">
<feFlood flood-opacity="0" result="BackgroundImageFix"/>
<feColorMatrix in="SourceAlpha" type="matrix" values="0 0 0 0 0 0 0 0 0 0 0 0 0 0 0 0 0 0 127 0" result="hardAlpha"/>
<feOffset dy="4"/>
<feGaussianBlur stdDeviation="2"/>
<feComposite in2="hardAlpha" operator="out"/>
<feColorMatrix type="matrix" values="0 0 0 0 0 0 0 0 0 0 0 0 0 0 0 0 0 0 0.25 0"/>
<feBlend mode="normal" in2="BackgroundImageFix" result="effect1_dropShadow_750_9696"/>
<feBlend mode="normal" in="SourceGraphic" in2="effect1_dropShadow_750_9696" result="shape"/>
</filter>
</defs>
</svg>
