<svg width="40" height="40" viewBox="0 0 40 40" fill="none" xmlns="http://www.w3.org/2000/svg">
<circle cx="20" cy="20" r="20" fill="#FAAE05" fill-opacity="0.08"/>
<path d="M18.7176 13.8949L12.3651 24.4999C12.2341 24.7267 12.1648 24.9839 12.1641 25.2458C12.1633 25.5077 12.2312 25.7653 12.3609 25.9928C12.4906 26.2204 12.6776 26.41 12.9034 26.5428C13.1291 26.6756 13.3857 26.747 13.6476 26.7499H26.3526C26.6145 26.747 26.8711 26.6756 27.0968 26.5428C27.3225 26.41 27.5096 26.2204 27.6393 25.9928C27.769 25.7653 27.8368 25.5077 27.8361 25.2458C27.8354 24.9839 27.7661 24.7267 27.6351 24.4999L21.2826 13.8949C21.1489 13.6745 20.9606 13.4922 20.736 13.3658C20.5113 13.2393 20.2579 13.1729 20.0001 13.1729C19.7423 13.1729 19.4888 13.2393 19.2642 13.3658C19.0395 13.4922 18.8513 13.6745 18.7176 13.8949Z" stroke="#FAAE05" stroke-width="1.4" stroke-linecap="round" stroke-linejoin="round"/>
<path d="M20 17.75V20.75" stroke="#FAAE05" stroke-width="1.4" stroke-linecap="round" stroke-linejoin="round"/>
<path d="M20 23.75H20.0075" stroke="#FAAE05" stroke-width="1.4" stroke-linecap="round" stroke-linejoin="round"/>
</svg>
